G75*
G70*
%OFA0B0*%
%FSLAX24Y24*%
%IPPOS*%
%LPD*%
%AMOC8*
5,1,8,0,0,1.08239X$1,22.5*
%
%ADD10C,0.1340*%
%ADD11R,0.0316X0.0946*%
%ADD12C,0.0600*%
%ADD13R,0.0710X0.0540*%
%ADD14R,0.0720X0.0060*%
%ADD15R,0.0540X0.0710*%
%ADD16R,0.0060X0.0720*%
%ADD17OC8,0.0600*%
%ADD18C,0.0740*%
%ADD19C,0.1080*%
%ADD20OC8,0.1080*%
%ADD21C,0.0520*%
%ADD22C,0.0785*%
%ADD23R,0.0671X0.0592*%
%ADD24C,0.0680*%
%ADD25OC8,0.0710*%
%ADD26C,0.0710*%
D10*
X001341Y001646D03*
X001341Y014244D03*
X026538Y014244D03*
X026538Y001646D03*
D11*
X011510Y002685D03*
X011010Y002685D03*
X010510Y002685D03*
X010010Y002685D03*
X010010Y004733D03*
X010510Y004733D03*
X011010Y004733D03*
X011510Y004733D03*
D12*
X012000Y005209D02*
X012520Y005209D01*
X012520Y004209D02*
X012000Y004209D01*
X012000Y003209D02*
X012520Y003209D01*
X012520Y002209D02*
X012000Y002209D01*
X009520Y002209D02*
X009000Y002209D01*
X009000Y003209D02*
X009520Y003209D01*
X009520Y004209D02*
X009000Y004209D01*
X009000Y005209D02*
X009520Y005209D01*
D13*
X009110Y006409D03*
X009110Y007009D03*
X007610Y007019D03*
X007610Y006419D03*
X006030Y006419D03*
X006030Y007019D03*
X004760Y007009D03*
X004760Y006409D03*
X012360Y006409D03*
X012360Y007009D03*
X013710Y007009D03*
X013710Y006409D03*
X015730Y006409D03*
X015730Y007009D03*
X012940Y008399D03*
X012940Y008999D03*
D14*
X012940Y008699D03*
X012360Y006709D03*
X013710Y006709D03*
X015730Y006709D03*
X009110Y006709D03*
X007610Y006719D03*
X006030Y006719D03*
X004760Y006709D03*
D15*
X008460Y008359D03*
X009060Y008359D03*
D16*
X008760Y008359D03*
D17*
X007360Y003859D03*
X007360Y001859D03*
X020360Y002359D03*
X020360Y003359D03*
X020360Y004259D03*
X020360Y005259D03*
D18*
X018190Y010915D02*
X017530Y010915D01*
X022530Y010915D02*
X023190Y010915D01*
D19*
X025919Y005509D03*
X001960Y005509D03*
D20*
X003960Y005509D03*
X023919Y005509D03*
D21*
X016310Y003009D03*
X015310Y003009D03*
X014310Y003009D03*
D22*
X025408Y009437D02*
X026113Y009437D01*
X026113Y011406D02*
X025408Y011406D01*
X002213Y011406D02*
X001508Y011406D01*
X001508Y009437D02*
X002213Y009437D01*
D23*
X010460Y007083D03*
X010460Y006335D03*
D24*
X017760Y013609D02*
X017760Y014209D01*
X018760Y014209D02*
X018760Y013609D01*
X019760Y013609D02*
X019760Y014209D01*
X021660Y014209D02*
X021660Y013609D01*
X022660Y013609D02*
X022660Y014209D01*
X023660Y014209D02*
X023660Y013609D01*
D25*
X024386Y003583D03*
X003460Y003909D03*
D26*
X002460Y003909D03*
X025386Y003583D03*
M02*
