G75*
G70*
%OFA0B0*%
%FSLAX24Y24*%
%IPPOS*%
%LPD*%
%AMOC8*
5,1,8,0,0,1.08239X$1,22.5*
%
%ADD10C,0.0040*%
%ADD11C,0.0120*%
%ADD12C,0.0500*%
%ADD13C,0.0050*%
%ADD14C,0.0160*%
%ADD15C,0.0020*%
D10*
X020259Y010164D02*
X020566Y009934D01*
X020259Y010164D02*
X020566Y010394D01*
X020566Y010721D02*
X020259Y010951D01*
X020566Y011182D01*
X020566Y011509D02*
X020259Y011739D01*
X020566Y011969D01*
X019857Y012648D02*
X019780Y012572D01*
X019550Y012572D01*
X019550Y013032D01*
X019780Y013032D01*
X019857Y012955D01*
X019857Y012878D01*
X019780Y012802D01*
X019550Y012802D01*
X019780Y012802D02*
X019857Y012725D01*
X019857Y012648D01*
X018794Y012648D02*
X018717Y012572D01*
X018564Y012572D01*
X018487Y012648D01*
X018487Y012955D01*
X018564Y013032D01*
X018717Y013032D01*
X018794Y012955D01*
X017849Y013032D02*
X017542Y013032D01*
X017542Y012572D01*
X017849Y012572D01*
X017696Y012802D02*
X017542Y012802D01*
X017549Y014659D02*
X017243Y014659D01*
X017243Y015120D01*
X017549Y015120D01*
X017703Y015120D02*
X017933Y015120D01*
X018010Y015043D01*
X018010Y014890D01*
X017933Y014813D01*
X017703Y014813D01*
X017703Y014659D02*
X017703Y015120D01*
X017396Y014890D02*
X017243Y014890D01*
X016936Y015120D02*
X016936Y014659D01*
X016629Y014736D02*
X016629Y014813D01*
X016552Y014890D01*
X016398Y014890D01*
X016322Y014966D01*
X016322Y015043D01*
X016398Y015120D01*
X016552Y015120D01*
X016629Y015043D01*
X016782Y015120D02*
X017089Y015120D01*
X016629Y014736D02*
X016552Y014659D01*
X016398Y014659D01*
X016322Y014736D01*
X018163Y014890D02*
X018470Y014890D01*
X018624Y015120D02*
X018624Y014659D01*
X018854Y014659D01*
X018931Y014736D01*
X018931Y015043D01*
X018854Y015120D01*
X018624Y015120D01*
X019084Y015043D02*
X019084Y014736D01*
X019161Y014659D01*
X019314Y014659D01*
X019391Y014736D01*
X019391Y015043D01*
X019314Y015120D01*
X019161Y015120D01*
X019084Y015043D01*
X019544Y015120D02*
X019544Y014659D01*
X019698Y014813D01*
X019851Y014659D01*
X019851Y015120D01*
X020005Y015120D02*
X020312Y014659D01*
X020312Y015120D01*
X020005Y015120D02*
X020005Y014659D01*
X021164Y014735D02*
X021241Y014658D01*
X021394Y014658D01*
X021471Y014735D01*
X021471Y014812D01*
X021394Y014888D01*
X021241Y014888D01*
X021164Y014965D01*
X021164Y015042D01*
X021241Y015119D01*
X021394Y015119D01*
X021471Y015042D01*
X021625Y015119D02*
X021932Y015119D01*
X022085Y015119D02*
X022085Y014658D01*
X022392Y014658D01*
X022545Y014658D02*
X022545Y015119D01*
X022776Y015119D01*
X022852Y015042D01*
X022852Y014888D01*
X022776Y014812D01*
X022545Y014812D01*
X022239Y014888D02*
X022085Y014888D01*
X021778Y014658D02*
X021778Y015119D01*
X022085Y015119D02*
X022392Y015119D01*
X023006Y014888D02*
X023313Y014888D01*
X023466Y014735D02*
X023543Y014658D01*
X023696Y014658D01*
X023773Y014735D01*
X023773Y015119D01*
X023927Y015119D02*
X024157Y015119D01*
X024234Y015042D01*
X024234Y014888D01*
X024157Y014812D01*
X023927Y014812D01*
X023927Y014658D02*
X023927Y015119D01*
X023466Y015119D02*
X023466Y014735D01*
X023448Y013032D02*
X023678Y013032D01*
X023755Y012955D01*
X023755Y012878D01*
X023678Y012802D01*
X023448Y012802D01*
X023678Y012802D02*
X023755Y012725D01*
X023755Y012648D01*
X023678Y012572D01*
X023448Y012572D01*
X023448Y013032D01*
X022770Y012955D02*
X022694Y013032D01*
X022540Y013032D01*
X022463Y012955D01*
X022463Y012648D01*
X022540Y012572D01*
X022694Y012572D01*
X022770Y012648D01*
X021747Y012572D02*
X021440Y012572D01*
X021440Y013032D01*
X021747Y013032D01*
X021593Y012802D02*
X021440Y012802D01*
D11*
X024629Y013027D02*
X025550Y013027D01*
X025090Y013487D02*
X025090Y012566D01*
X022855Y010201D02*
X022624Y009970D01*
X021704Y009970D01*
X021934Y009740D02*
X021934Y010201D01*
X021934Y009280D02*
X022855Y009280D01*
X022855Y008589D01*
X022624Y008359D01*
X021934Y008359D01*
X022164Y007899D02*
X021934Y007668D01*
X021934Y007208D01*
X022164Y006978D01*
X022624Y006978D01*
X022855Y007208D01*
X022855Y007668D01*
X022624Y007899D01*
X022164Y007899D01*
X004817Y012730D02*
X004817Y013420D01*
X004587Y013650D01*
X003897Y013650D01*
X003897Y012730D01*
X003436Y012730D02*
X002976Y012730D01*
X003206Y012730D02*
X003206Y013650D01*
X002976Y013650D01*
X003206Y014111D02*
X003206Y014341D01*
D12*
X009176Y005977D02*
X009178Y005989D01*
X009183Y006000D01*
X009192Y006009D01*
X009203Y006014D01*
X009215Y006016D01*
X009227Y006014D01*
X009238Y006009D01*
X009247Y006000D01*
X009252Y005989D01*
X009254Y005977D01*
X009252Y005965D01*
X009247Y005954D01*
X009238Y005945D01*
X009227Y005940D01*
X009215Y005938D01*
X009203Y005940D01*
X009192Y005945D01*
X009183Y005954D01*
X009178Y005965D01*
X009176Y005977D01*
D13*
X019476Y001379D02*
X019578Y001481D01*
X019883Y001481D01*
X019883Y001583D02*
X019782Y001684D01*
X019578Y001684D01*
X019883Y001583D02*
X019883Y001277D01*
X019578Y001277D01*
X019476Y001379D01*
X020084Y001379D02*
X020084Y001583D01*
X020186Y001684D01*
X020491Y001684D01*
X020895Y001684D02*
X020895Y001176D01*
X020794Y001074D01*
X020692Y001074D01*
X020491Y001277D02*
X020186Y001277D01*
X020084Y001379D01*
X020491Y001277D02*
X020491Y001888D01*
X020895Y001888D02*
X020895Y001990D01*
X021445Y001888D02*
X021852Y001888D01*
X021648Y001888D02*
X021648Y001277D01*
X022053Y001176D02*
X022460Y001176D01*
X022660Y001277D02*
X022660Y001888D01*
X023067Y001277D01*
X023067Y001888D01*
D14*
X021026Y000859D02*
X013546Y000859D01*
X013546Y005662D01*
X021026Y005662D01*
X021026Y000859D01*
D15*
X005719Y001656D02*
X005682Y001693D01*
X005682Y001840D01*
X005719Y001876D01*
X005792Y001876D01*
X005829Y001840D01*
X005903Y001803D02*
X005976Y001876D01*
X005976Y001656D01*
X005903Y001656D02*
X006050Y001656D01*
X005829Y001693D02*
X005792Y001656D01*
X005719Y001656D01*
X013950Y002050D02*
X013950Y002270D01*
X014060Y002270D01*
X014096Y002233D01*
X014096Y002160D01*
X014060Y002123D01*
X013950Y002123D01*
X014023Y002123D02*
X014096Y002050D01*
X014171Y002050D02*
X014317Y002197D01*
X014317Y002233D01*
X014281Y002270D01*
X014207Y002270D01*
X014171Y002233D01*
X014171Y002050D02*
X014317Y002050D01*
X014392Y002050D02*
X014538Y002050D01*
X014465Y002050D02*
X014465Y002270D01*
X014392Y002197D01*
X015131Y001483D02*
X015241Y001483D01*
X015277Y001446D01*
X015277Y001372D01*
X015241Y001336D01*
X015131Y001336D01*
X015204Y001336D02*
X015277Y001262D01*
X015352Y001262D02*
X015498Y001409D01*
X015498Y001446D01*
X015462Y001483D01*
X015388Y001483D01*
X015352Y001446D01*
X015352Y001262D02*
X015498Y001262D01*
X015573Y001372D02*
X015719Y001372D01*
X015683Y001262D02*
X015683Y001483D01*
X015573Y001372D01*
X015131Y001262D02*
X015131Y001483D01*
X017493Y001656D02*
X017493Y001876D01*
X017603Y001876D01*
X017640Y001840D01*
X017640Y001766D01*
X017603Y001729D01*
X017493Y001729D01*
X017566Y001729D02*
X017640Y001656D01*
X017714Y001656D02*
X017861Y001656D01*
X017787Y001656D02*
X017787Y001876D01*
X017714Y001803D01*
X017935Y001840D02*
X017972Y001876D01*
X018045Y001876D01*
X018082Y001840D01*
X018082Y001803D01*
X017935Y001656D01*
X018082Y001656D01*
X018674Y001656D02*
X018674Y001876D01*
X018784Y001876D01*
X018821Y001840D01*
X018821Y001766D01*
X018784Y001729D01*
X018674Y001729D01*
X018747Y001729D02*
X018821Y001656D01*
X018895Y001656D02*
X019042Y001656D01*
X018968Y001656D02*
X018968Y001876D01*
X018895Y001803D01*
X019116Y001803D02*
X019189Y001876D01*
X019189Y001656D01*
X019116Y001656D02*
X019263Y001656D01*
X019289Y003625D02*
X019435Y003625D01*
X019362Y003625D02*
X019362Y003845D01*
X019289Y003771D01*
X019214Y003735D02*
X019178Y003698D01*
X019068Y003698D01*
X019141Y003698D02*
X019214Y003625D01*
X019214Y003735D02*
X019214Y003808D01*
X019178Y003845D01*
X019068Y003845D01*
X019068Y003625D01*
X019510Y003661D02*
X019546Y003625D01*
X019620Y003625D01*
X019656Y003661D01*
X019656Y003698D01*
X019620Y003735D01*
X019510Y003735D01*
X019510Y003661D01*
X019510Y003735D02*
X019583Y003808D01*
X019656Y003845D01*
X018475Y003735D02*
X018329Y003735D01*
X018439Y003845D01*
X018439Y003625D01*
X018254Y003625D02*
X018108Y003625D01*
X018181Y003625D02*
X018181Y003845D01*
X018108Y003771D01*
X018033Y003808D02*
X018033Y003735D01*
X017997Y003698D01*
X017887Y003698D01*
X017960Y003698D02*
X018033Y003625D01*
X017887Y003625D02*
X017887Y003845D01*
X017997Y003845D01*
X018033Y003808D01*
X016113Y004412D02*
X015966Y004412D01*
X016113Y004559D01*
X016113Y004595D01*
X016076Y004632D01*
X016003Y004632D01*
X015966Y004595D01*
X015892Y004595D02*
X015855Y004632D01*
X015782Y004632D01*
X015745Y004595D01*
X015671Y004595D02*
X015671Y004522D01*
X015634Y004485D01*
X015524Y004485D01*
X015524Y004412D02*
X015524Y004632D01*
X015634Y004632D01*
X015671Y004595D01*
X015598Y004485D02*
X015671Y004412D01*
X015745Y004412D02*
X015892Y004559D01*
X015892Y004595D01*
X015892Y004412D02*
X015745Y004412D01*
X013493Y006774D02*
X013420Y006774D01*
X013383Y006811D01*
X013383Y006884D02*
X013457Y006921D01*
X013493Y006921D01*
X013530Y006884D01*
X013530Y006811D01*
X013493Y006774D01*
X013383Y006884D02*
X013383Y006994D01*
X013530Y006994D01*
X013309Y006958D02*
X013309Y006884D01*
X013272Y006848D01*
X013162Y006848D01*
X013236Y006848D02*
X013309Y006774D01*
X013162Y006774D02*
X013162Y006994D01*
X013272Y006994D01*
X013309Y006958D01*
X023398Y001446D02*
X023435Y001483D01*
X023508Y001483D01*
X023545Y001446D01*
X023545Y001409D01*
X023508Y001372D01*
X023545Y001336D01*
X023545Y001299D01*
X023508Y001262D01*
X023435Y001262D01*
X023398Y001299D01*
X023472Y001372D02*
X023508Y001372D01*
X023619Y001372D02*
X023766Y001372D01*
X023840Y001299D02*
X023987Y001446D01*
X023987Y001299D01*
X023950Y001262D01*
X023877Y001262D01*
X023840Y001299D01*
X023840Y001446D01*
X023877Y001483D01*
X023950Y001483D01*
X023987Y001446D01*
X024061Y001372D02*
X024135Y001446D01*
X024208Y001483D01*
X024282Y001446D02*
X024319Y001483D01*
X024392Y001483D01*
X024429Y001446D01*
X024429Y001409D01*
X024392Y001372D01*
X024429Y001336D01*
X024429Y001299D01*
X024392Y001262D01*
X024319Y001262D01*
X024282Y001299D01*
X024208Y001299D02*
X024208Y001336D01*
X024171Y001372D01*
X024061Y001372D01*
X024061Y001299D01*
X024098Y001262D01*
X024171Y001262D01*
X024208Y001299D01*
X024356Y001372D02*
X024392Y001372D01*
X023729Y001262D02*
X023729Y001483D01*
X023619Y001372D01*
M02*
