%
M48
M72
T01C0.0236
T02C0.0240
T03C0.0320
T04C0.0400
T05C0.0440
T06C0.0470
T07C0.1260
%
T01
X11520Y5879
X11510Y6529
X12760Y7709
X13260Y7709
X10632Y8496
X10121Y8496
X9940Y10169
X10440Y10169
X12837Y11725
X13428Y11725
X13113Y11292
X7562Y11725
X6971Y11725
X7247Y11292
X5320Y7739
X4760Y7739
X14176Y4914
X14530Y5268
X21184Y12000
X21735Y12000
T02
X16310Y3009
X15310Y3009
X14310Y3009
T03
X12260Y3209
X12260Y2209
X9260Y2209
X9260Y3209
X9260Y4209
X9260Y5209
X7360Y3859
X7360Y1859
X3460Y3909
X2460Y3909
X12260Y4209
X12260Y5209
X20360Y5259
X20360Y4259
X20360Y3359
X20360Y2359
X24386Y3583
X25386Y3583
T04
X25919Y5509
X23919Y5509
X23660Y13909
X22660Y13909
X21660Y13909
X19760Y13909
X18760Y13909
X17760Y13909
X3960Y5509
X1960Y5509
T05
X17860Y10915
X22860Y10915
T06
X25760Y11406
X25760Y9437
X1860Y9437
X1860Y11406
T07
X1341Y1646
X1341Y14244
X26538Y14244
X26538Y1646
M30
