G75*
G70*
%OFA0B0*%
%FSLAX24Y24*%
%IPPOS*%
%LPD*%
%AMOC8*
5,1,8,0,0,1.08239X$1,22.5*
%
%ADD10R,0.0236X0.0866*%
%ADD11C,0.0520*%
%ADD12R,0.0630X0.0460*%
%ADD13R,0.0460X0.0630*%
%ADD14OC8,0.0520*%
%ADD15C,0.0660*%
%ADD16C,0.1000*%
%ADD17OC8,0.1000*%
%ADD18C,0.0440*%
%ADD19C,0.0705*%
%ADD20R,0.0591X0.0512*%
%ADD21C,0.0600*%
%ADD22OC8,0.0630*%
%ADD23C,0.0630*%
%ADD24C,0.0240*%
%ADD25C,0.0400*%
%ADD26C,0.0396*%
%ADD27C,0.0500*%
%ADD28C,0.0320*%
%ADD29C,0.0120*%
D10*
X010010Y002685D03*
X010510Y002685D03*
X011010Y002685D03*
X011510Y002685D03*
X011510Y004733D03*
X011010Y004733D03*
X010510Y004733D03*
X010010Y004733D03*
D11*
X009520Y005209D02*
X009000Y005209D01*
X009000Y004209D02*
X009520Y004209D01*
X009520Y003209D02*
X009000Y003209D01*
X009000Y002209D02*
X009520Y002209D01*
X012000Y002209D02*
X012520Y002209D01*
X012520Y003209D02*
X012000Y003209D01*
X012000Y004209D02*
X012520Y004209D01*
X012520Y005209D02*
X012000Y005209D01*
D12*
X012360Y006409D03*
X012360Y007009D03*
X013710Y007009D03*
X013710Y006409D03*
X015730Y006409D03*
X015730Y007009D03*
X012940Y008399D03*
X012940Y008999D03*
X009110Y007009D03*
X009110Y006409D03*
X007610Y006419D03*
X007610Y007019D03*
X006030Y007019D03*
X006030Y006419D03*
X004760Y006409D03*
X004760Y007009D03*
D13*
X008460Y008359D03*
X009060Y008359D03*
D14*
X007360Y003859D03*
X007360Y001859D03*
X020360Y002359D03*
X020360Y003359D03*
X020360Y004259D03*
X020360Y005259D03*
D15*
X018190Y010915D02*
X017530Y010915D01*
X022530Y010915D02*
X023190Y010915D01*
D16*
X025919Y005509D03*
X001960Y005509D03*
D17*
X003960Y005509D03*
X023919Y005509D03*
D18*
X016310Y003009D03*
X015310Y003009D03*
X014310Y003009D03*
D19*
X025408Y009437D02*
X026113Y009437D01*
X026113Y011406D02*
X025408Y011406D01*
X002213Y011406D02*
X001508Y011406D01*
X001508Y009437D02*
X002213Y009437D01*
D20*
X010460Y007083D03*
X010460Y006335D03*
D21*
X017760Y013609D02*
X017760Y014209D01*
X018760Y014209D02*
X018760Y013609D01*
X019760Y013609D02*
X019760Y014209D01*
X021660Y014209D02*
X021660Y013609D01*
X022660Y013609D02*
X022660Y014209D01*
X023660Y014209D02*
X023660Y013609D01*
D22*
X024386Y003583D03*
X003460Y003909D03*
D23*
X002460Y003909D03*
X025386Y003583D03*
D24*
X013060Y004809D02*
X013060Y001909D01*
X012660Y001509D01*
X010660Y001509D01*
X010010Y002159D01*
X010010Y002685D01*
X010510Y002685D02*
X010510Y003059D01*
X011460Y004009D01*
X012060Y004009D01*
X012260Y004209D01*
X011510Y004733D02*
X011510Y006529D01*
X011030Y007009D01*
X011510Y006529D02*
X011510Y005889D01*
X011520Y005879D01*
X012260Y005209D02*
X012660Y005209D01*
X013060Y004809D01*
X011010Y004733D02*
X011010Y004159D01*
X010360Y003509D01*
X009560Y003509D01*
X009260Y003209D01*
X009460Y004009D02*
X009260Y004209D01*
X009460Y004009D02*
X010360Y004009D01*
X010510Y004159D01*
X010510Y004733D01*
X010510Y005339D01*
X010460Y005389D01*
X010460Y006335D01*
X009260Y005209D02*
X009736Y004733D01*
X010010Y004733D01*
X011460Y003509D02*
X011960Y003509D01*
X012260Y003209D01*
X011460Y003509D02*
X011010Y003059D01*
X011010Y002685D01*
X011510Y002685D02*
X011784Y002685D01*
X012260Y002209D01*
D25*
X009260Y004209D02*
X008560Y004209D01*
X007610Y005159D01*
X007610Y006419D01*
X007620Y006409D01*
X008060Y006409D01*
X008360Y006709D01*
X008360Y007509D01*
X008460Y007609D01*
X008460Y008359D01*
X009060Y008359D02*
X009060Y009309D01*
X009920Y010169D01*
X009940Y010169D01*
X010440Y010169D01*
X009460Y011409D02*
X007560Y009509D01*
X007560Y007069D01*
X007610Y007019D01*
X007650Y007019D01*
X007660Y007009D01*
X007610Y007019D02*
X006030Y007019D01*
X006030Y006419D02*
X004150Y006419D01*
X003860Y006709D01*
X003860Y014209D01*
X004442Y014791D01*
X024610Y014791D01*
X025258Y014103D01*
X025258Y011843D01*
X025754Y011347D01*
X025760Y011406D02*
X020360Y006006D01*
X020360Y005259D01*
X018560Y007009D02*
X022860Y010915D01*
X022660Y011115D01*
X022660Y013909D01*
X017760Y013909D02*
X017760Y011015D01*
X017860Y010915D01*
X015760Y007009D02*
X013770Y008999D01*
X012940Y008999D01*
X012940Y008399D02*
X012373Y008397D01*
X011669Y007696D01*
X012360Y007009D01*
X012360Y006409D02*
X013710Y006409D01*
X013980Y006409D01*
X014530Y005859D01*
X014530Y005268D01*
X014176Y004914D01*
X013710Y007009D02*
X013710Y007259D01*
X013260Y007709D01*
X012760Y007709D01*
X011669Y007696D02*
X009990Y007696D01*
X009760Y007509D01*
X009760Y006309D01*
X009560Y006109D01*
X009260Y006109D01*
X009160Y006209D01*
X009160Y006309D01*
X009060Y006409D01*
X009260Y006109D02*
X009260Y005209D01*
X009110Y007009D02*
X009110Y008259D01*
X009060Y008309D01*
X006030Y006419D02*
X006020Y006409D01*
X004760Y006409D01*
X004760Y007009D02*
X004760Y007709D01*
X004760Y007739D02*
X005320Y007739D01*
X009460Y011409D02*
X011460Y011409D01*
X013960Y013909D01*
X017760Y013909D01*
X018560Y007009D02*
X015760Y007009D01*
D26*
X013260Y007709D03*
X012760Y007709D03*
X010632Y008496D03*
X010121Y008496D03*
X009940Y010169D03*
X010440Y010169D03*
X012837Y011725D03*
X013428Y011725D03*
X013113Y011292D03*
X007562Y011725D03*
X006971Y011725D03*
X007247Y011292D03*
X005320Y007739D03*
X004760Y007739D03*
X011510Y006529D03*
X011520Y005879D03*
X014176Y004914D03*
X014530Y005268D03*
X021184Y012000D03*
X021735Y012000D03*
D27*
X025760Y011406D02*
X027050Y010116D01*
X027050Y006016D01*
X026617Y005622D01*
X026184Y005622D01*
X025987Y005426D01*
X025919Y005509D02*
X025919Y004116D01*
X025386Y003583D01*
X024386Y003583D02*
X024278Y003583D01*
X023912Y005502D02*
X023919Y005509D01*
X002460Y003909D02*
X001960Y004409D01*
X001960Y005409D01*
X000817Y006552D01*
X000817Y011018D01*
X001244Y011406D01*
X001860Y011406D01*
D28*
X008460Y009509D02*
X008460Y008359D01*
X008460Y009509D02*
X009660Y010709D01*
X011660Y010709D01*
X012760Y009609D01*
X014160Y009609D01*
X014560Y009209D01*
X019560Y009209D01*
X020560Y010209D01*
X020560Y013585D01*
X020560Y013709D01*
X020760Y013909D01*
X021660Y013909D01*
X019760Y013909D01*
D29*
X002213Y000977D02*
X002161Y000925D01*
X025718Y000925D01*
X025666Y000977D01*
X025522Y001225D01*
X025448Y001503D01*
X025448Y001790D01*
X025522Y002067D01*
X025666Y002315D01*
X025869Y002518D01*
X026117Y002662D01*
X026394Y002736D01*
X026681Y002736D01*
X026959Y002662D01*
X027207Y002518D01*
X027259Y002466D01*
X027259Y005678D01*
X026886Y005340D01*
X026838Y005291D01*
X026829Y005287D01*
X026822Y005281D01*
X026758Y005258D01*
X026694Y005232D01*
X026685Y005232D01*
X026676Y005228D01*
X026607Y005232D01*
X026498Y005232D01*
X026462Y005146D01*
X026310Y004994D01*
X026310Y004194D01*
X026310Y004038D01*
X026250Y003895D01*
X025837Y003482D01*
X025772Y003325D01*
X025644Y003197D01*
X025477Y003127D01*
X025295Y003127D01*
X025128Y003197D01*
X025000Y003325D01*
X024930Y003492D01*
X024930Y003674D01*
X025000Y003841D01*
X025128Y003969D01*
X025285Y004034D01*
X025528Y004278D01*
X025528Y004994D01*
X025376Y005146D01*
X025278Y005382D01*
X025278Y005636D01*
X025376Y005872D01*
X025556Y006052D01*
X025792Y006150D01*
X026046Y006150D01*
X026282Y006052D01*
X026321Y006013D01*
X026466Y006013D01*
X026659Y006189D01*
X026659Y009954D01*
X025725Y010889D01*
X020701Y005865D01*
X020701Y005485D01*
X020761Y005425D01*
X020761Y005093D01*
X020526Y004858D01*
X020194Y004858D01*
X019959Y005093D01*
X019959Y005425D01*
X020019Y005485D01*
X020019Y006074D01*
X020071Y006199D01*
X024994Y011122D01*
X024989Y011126D01*
X024914Y011308D01*
X024914Y011504D01*
X024973Y011646D01*
X024970Y011650D01*
X024918Y011775D01*
X024918Y013967D01*
X024463Y014450D01*
X024053Y014450D01*
X024053Y014450D01*
X024086Y014386D01*
X024109Y014317D01*
X024120Y014245D01*
X024120Y013949D01*
X023700Y013949D01*
X023700Y013869D01*
X023700Y013150D01*
X023768Y013160D01*
X023837Y013183D01*
X023901Y013216D01*
X023960Y013258D01*
X024011Y013309D01*
X024053Y013368D01*
X024086Y013432D01*
X024109Y013501D01*
X024120Y013573D01*
X024120Y013869D01*
X023700Y013869D01*
X023620Y013869D01*
X023620Y013150D01*
X023552Y013160D01*
X023483Y013183D01*
X023419Y013216D01*
X023360Y013258D01*
X023309Y013309D01*
X023267Y013368D01*
X023234Y013432D01*
X023211Y013501D01*
X023200Y013573D01*
X023200Y013869D01*
X023620Y013869D01*
X023620Y013949D01*
X023200Y013949D01*
X023200Y014245D01*
X023211Y014317D01*
X023234Y014386D01*
X023267Y014450D01*
X023267Y014450D01*
X023037Y014450D01*
X023101Y014297D01*
X023101Y013521D01*
X023034Y013359D01*
X023001Y013326D01*
X023001Y011386D01*
X023284Y011386D01*
X023457Y011314D01*
X023589Y011182D01*
X023661Y011009D01*
X023661Y010822D01*
X023589Y010649D01*
X023457Y010516D01*
X023284Y010445D01*
X022849Y010445D01*
X018795Y006762D01*
X018753Y006720D01*
X018745Y006717D01*
X018739Y006711D01*
X018683Y006691D01*
X018628Y006668D01*
X018619Y006668D01*
X018611Y006665D01*
X018552Y006668D01*
X016203Y006668D01*
X016205Y006660D01*
X016205Y006464D01*
X015785Y006464D01*
X015785Y006354D01*
X015785Y006019D01*
X016066Y006019D01*
X016107Y006030D01*
X016143Y006051D01*
X016173Y006081D01*
X016194Y006117D01*
X016205Y006158D01*
X016205Y006354D01*
X015785Y006354D01*
X015675Y006354D01*
X015675Y006019D01*
X015394Y006019D01*
X015353Y006030D01*
X015317Y006051D01*
X015287Y006081D01*
X015266Y006117D01*
X015255Y006158D01*
X015255Y006354D01*
X015675Y006354D01*
X015675Y006464D01*
X015255Y006464D01*
X015255Y006660D01*
X015266Y006701D01*
X015276Y006719D01*
X015274Y006721D01*
X015274Y007013D01*
X013629Y008658D01*
X013396Y008658D01*
X013396Y008111D01*
X013333Y008048D01*
X013453Y007998D01*
X013999Y007452D01*
X014029Y007380D01*
X014083Y007380D01*
X014166Y007297D01*
X014166Y006721D01*
X014154Y006709D01*
X014160Y006703D01*
X014173Y006698D01*
X014723Y006147D01*
X014819Y006052D01*
X014871Y005926D01*
X014871Y005200D01*
X014819Y005075D01*
X014369Y004625D01*
X014244Y004573D01*
X014108Y004573D01*
X013983Y004625D01*
X013887Y004721D01*
X013835Y004846D01*
X013835Y004982D01*
X013887Y005107D01*
X014189Y005409D01*
X014189Y005717D01*
X013869Y006038D01*
X013337Y006038D01*
X013307Y006068D01*
X012763Y006068D01*
X012733Y006038D01*
X011987Y006038D01*
X011904Y006121D01*
X011904Y006697D01*
X011916Y006709D01*
X011904Y006721D01*
X011904Y006982D01*
X011529Y007355D01*
X010915Y007355D01*
X010915Y007143D01*
X010520Y007143D01*
X010520Y007023D01*
X010915Y007023D01*
X010915Y006806D01*
X010904Y006765D01*
X010883Y006729D01*
X010854Y006699D01*
X010849Y006696D01*
X010896Y006649D01*
X010896Y006021D01*
X010814Y005938D01*
X010721Y005938D01*
X010721Y005497D01*
X010731Y005487D01*
X010771Y005391D01*
X010771Y005244D01*
X010834Y005306D01*
X011186Y005306D01*
X011251Y005242D01*
X011264Y005264D01*
X011294Y005294D01*
X011330Y005315D01*
X011371Y005326D01*
X011510Y005326D01*
X011510Y004733D01*
X011510Y004733D01*
X011510Y005326D01*
X011615Y005326D01*
X011660Y005436D01*
X011773Y005549D01*
X011920Y005610D01*
X012600Y005610D01*
X012747Y005549D01*
X012860Y005436D01*
X012901Y005337D01*
X013281Y004957D01*
X013321Y004861D01*
X013321Y001857D01*
X013281Y001761D01*
X013208Y001688D01*
X012808Y001288D01*
X012712Y001248D01*
X010608Y001248D01*
X010512Y001288D01*
X010439Y001361D01*
X010439Y001361D01*
X009862Y001938D01*
X009862Y001938D01*
X009851Y001950D01*
X009840Y001935D01*
X009794Y001889D01*
X009740Y001850D01*
X009681Y001820D01*
X009618Y001799D01*
X009553Y001789D01*
X009280Y001789D01*
X009280Y002189D01*
X009240Y002189D01*
X009240Y001789D01*
X008967Y001789D01*
X008902Y001799D01*
X008839Y001820D01*
X008780Y001850D01*
X008726Y001889D01*
X008680Y001935D01*
X008641Y001989D01*
X008611Y002048D01*
X008590Y002111D01*
X008580Y002176D01*
X008580Y002189D01*
X009240Y002189D01*
X009240Y002229D01*
X008580Y002229D01*
X008580Y002242D01*
X008590Y002307D01*
X008611Y002370D01*
X008641Y002429D01*
X008680Y002483D01*
X008726Y002529D01*
X008780Y002568D01*
X008839Y002598D01*
X008902Y002619D01*
X008967Y002629D01*
X009240Y002629D01*
X009240Y002229D01*
X009280Y002229D01*
X009280Y002629D01*
X009553Y002629D01*
X009618Y002619D01*
X009681Y002598D01*
X009740Y002568D01*
X009749Y002562D01*
X009749Y002737D01*
X009751Y002742D01*
X009751Y002874D01*
X009747Y002869D01*
X009600Y002808D01*
X008920Y002808D01*
X008773Y002869D01*
X008660Y002982D01*
X008599Y003129D01*
X008599Y003289D01*
X008660Y003436D01*
X008773Y003549D01*
X008920Y003610D01*
X009292Y003610D01*
X009412Y003730D01*
X009456Y003748D01*
X009408Y003748D01*
X009312Y003788D01*
X009292Y003808D01*
X008920Y003808D01*
X008775Y003868D01*
X008492Y003868D01*
X008367Y003920D01*
X008271Y004016D01*
X008271Y004016D01*
X007321Y004966D01*
X007269Y005091D01*
X007269Y006048D01*
X007237Y006048D01*
X007154Y006131D01*
X007154Y006678D01*
X006486Y006678D01*
X006486Y006131D01*
X006403Y006048D01*
X005657Y006048D01*
X005637Y006068D01*
X005163Y006068D01*
X005133Y006038D01*
X004387Y006038D01*
X004347Y006078D01*
X004324Y006078D01*
X004620Y005782D01*
X004620Y005549D01*
X004000Y005549D01*
X004000Y005469D01*
X004000Y004849D01*
X004233Y004849D01*
X004620Y005236D01*
X004620Y005469D01*
X004000Y005469D01*
X003920Y005469D01*
X003920Y004849D01*
X003687Y004849D01*
X003300Y005236D01*
X003300Y005469D01*
X003920Y005469D01*
X003920Y005549D01*
X003300Y005549D01*
X003300Y005782D01*
X003687Y006169D01*
X003918Y006169D01*
X003667Y006420D01*
X003571Y006516D01*
X003519Y006641D01*
X003519Y014277D01*
X003571Y014402D01*
X004135Y014966D01*
X002161Y014966D01*
X002213Y014914D01*
X002357Y014665D01*
X002431Y014388D01*
X002431Y014101D01*
X002357Y013824D01*
X002213Y013575D01*
X002010Y013372D01*
X001762Y013229D01*
X001485Y013155D01*
X001198Y013155D01*
X000920Y013229D01*
X000672Y013372D01*
X000620Y013424D01*
X000620Y011367D01*
X000620Y011367D01*
X000975Y011689D01*
X001023Y011737D01*
X001032Y011741D01*
X001039Y011747D01*
X001103Y011770D01*
X001167Y011797D01*
X001176Y011797D01*
X001185Y011800D01*
X001203Y011799D01*
X001228Y011824D01*
X001409Y011899D01*
X002311Y011899D01*
X002492Y011824D01*
X002631Y011685D01*
X002706Y011504D01*
X002706Y011308D01*
X002631Y011126D01*
X002492Y010988D01*
X002311Y010913D01*
X001409Y010913D01*
X001322Y010949D01*
X001208Y010845D01*
X001208Y009853D01*
X001239Y009876D01*
X001311Y009912D01*
X001387Y009937D01*
X001467Y009950D01*
X001802Y009950D01*
X001802Y009495D01*
X001918Y009495D01*
X002722Y009495D01*
X002712Y009557D01*
X002687Y009634D01*
X002651Y009706D01*
X002603Y009771D01*
X002546Y009828D01*
X002481Y009876D01*
X002409Y009912D01*
X002333Y009937D01*
X002253Y009950D01*
X001918Y009950D01*
X001918Y009495D01*
X001918Y009380D01*
X002722Y009380D01*
X002712Y009317D01*
X002687Y009241D01*
X002651Y009169D01*
X002603Y009103D01*
X002546Y009046D01*
X002481Y008999D01*
X002409Y008962D01*
X002333Y008937D01*
X002253Y008925D01*
X001918Y008925D01*
X001918Y009380D01*
X001802Y009380D01*
X001802Y008925D01*
X001467Y008925D01*
X001387Y008937D01*
X001311Y008962D01*
X001239Y008999D01*
X001208Y009021D01*
X001208Y006713D01*
X001790Y006132D01*
X001833Y006150D01*
X002087Y006150D01*
X002323Y006052D01*
X002503Y005872D01*
X002601Y005636D01*
X002601Y005382D01*
X002503Y005146D01*
X002351Y004994D01*
X002351Y004571D01*
X002561Y004360D01*
X002718Y004295D01*
X002846Y004167D01*
X002916Y004000D01*
X002916Y003818D01*
X002846Y003651D01*
X002718Y003523D01*
X002551Y003453D01*
X002369Y003453D01*
X002202Y003523D01*
X002074Y003651D01*
X002009Y003808D01*
X001739Y004078D01*
X001739Y004078D01*
X001629Y004188D01*
X001569Y004331D01*
X001569Y004994D01*
X001417Y005146D01*
X001319Y005382D01*
X001319Y005497D01*
X000620Y006196D01*
X000620Y002466D01*
X000672Y002518D01*
X000920Y002662D01*
X001198Y002736D01*
X001485Y002736D01*
X001762Y002662D01*
X002010Y002518D01*
X002213Y002315D01*
X002357Y002067D01*
X002431Y001790D01*
X002431Y001503D01*
X002357Y001225D01*
X002213Y000977D01*
X002175Y000939D02*
X025704Y000939D01*
X025619Y001057D02*
X002260Y001057D01*
X002328Y001176D02*
X025551Y001176D01*
X025504Y001294D02*
X012814Y001294D01*
X012933Y001413D02*
X025472Y001413D01*
X025448Y001531D02*
X013051Y001531D01*
X013170Y001650D02*
X025448Y001650D01*
X025448Y001768D02*
X013284Y001768D01*
X013321Y001887D02*
X025474Y001887D01*
X025506Y002005D02*
X020600Y002005D01*
X020534Y001939D02*
X020780Y002185D01*
X020780Y002339D01*
X020380Y002339D01*
X020380Y001939D01*
X020534Y001939D01*
X020380Y002005D02*
X020340Y002005D01*
X020340Y001939D02*
X020340Y002339D01*
X020380Y002339D01*
X020380Y002379D01*
X020780Y002379D01*
X020780Y002533D01*
X020534Y002779D01*
X020380Y002779D01*
X020380Y002379D01*
X020340Y002379D01*
X020340Y002339D01*
X019940Y002339D01*
X019940Y002185D01*
X020186Y001939D01*
X020340Y001939D01*
X020340Y002124D02*
X020380Y002124D01*
X020380Y002242D02*
X020340Y002242D01*
X020340Y002361D02*
X013321Y002361D01*
X013321Y002479D02*
X019940Y002479D01*
X019940Y002533D02*
X019940Y002379D01*
X020340Y002379D01*
X020340Y002779D01*
X020186Y002779D01*
X019940Y002533D01*
X020005Y002598D02*
X013321Y002598D01*
X013321Y002716D02*
X014092Y002716D01*
X014106Y002703D02*
X014238Y002648D01*
X014382Y002648D01*
X014514Y002703D01*
X014616Y002805D01*
X014671Y002937D01*
X014671Y003081D01*
X014616Y003213D01*
X014514Y003315D01*
X014382Y003370D01*
X014238Y003370D01*
X014106Y003315D01*
X014004Y003213D01*
X013949Y003081D01*
X013949Y002937D01*
X014004Y002805D01*
X014106Y002703D01*
X013992Y002835D02*
X013321Y002835D01*
X013321Y002953D02*
X013949Y002953D01*
X013949Y003072D02*
X013321Y003072D01*
X013321Y003190D02*
X013995Y003190D01*
X014100Y003309D02*
X013321Y003309D01*
X013321Y003427D02*
X019959Y003427D01*
X019959Y003525D02*
X019959Y003193D01*
X020194Y002958D01*
X020526Y002958D01*
X020761Y003193D01*
X020761Y003525D01*
X020526Y003760D01*
X020194Y003760D01*
X019959Y003525D01*
X019980Y003546D02*
X013321Y003546D01*
X013321Y003664D02*
X020099Y003664D01*
X020194Y003858D02*
X020526Y003858D01*
X020761Y004093D01*
X020761Y004425D01*
X020526Y004660D01*
X020194Y004660D01*
X019959Y004425D01*
X019959Y004093D01*
X020194Y003858D01*
X020151Y003901D02*
X013321Y003901D01*
X013321Y003783D02*
X023914Y003783D01*
X023911Y003780D02*
X023911Y003603D01*
X024366Y003603D01*
X024366Y003563D01*
X024406Y003563D01*
X024406Y003108D01*
X024583Y003108D01*
X024861Y003386D01*
X024861Y003563D01*
X024406Y003563D01*
X024406Y003603D01*
X024861Y003603D01*
X024861Y003780D01*
X024583Y004058D01*
X024406Y004058D01*
X024406Y003603D01*
X024366Y003603D01*
X024366Y004058D01*
X024189Y004058D01*
X023911Y003780D01*
X023911Y003664D02*
X020621Y003664D01*
X020740Y003546D02*
X023911Y003546D01*
X023911Y003563D02*
X023911Y003386D01*
X024189Y003108D01*
X024366Y003108D01*
X024366Y003563D01*
X023911Y003563D01*
X023911Y003427D02*
X020761Y003427D01*
X020761Y003309D02*
X023988Y003309D01*
X024107Y003190D02*
X020758Y003190D01*
X020640Y003072D02*
X027259Y003072D01*
X027259Y003190D02*
X025629Y003190D01*
X025756Y003309D02*
X027259Y003309D01*
X027259Y003427D02*
X025815Y003427D01*
X025901Y003546D02*
X027259Y003546D01*
X027259Y003664D02*
X026020Y003664D01*
X026138Y003783D02*
X027259Y003783D01*
X027259Y003901D02*
X026253Y003901D01*
X026302Y004020D02*
X027259Y004020D01*
X027259Y004138D02*
X026310Y004138D01*
X026310Y004257D02*
X027259Y004257D01*
X027259Y004375D02*
X026310Y004375D01*
X026310Y004494D02*
X027259Y004494D01*
X027259Y004612D02*
X026310Y004612D01*
X026310Y004731D02*
X027259Y004731D01*
X027259Y004849D02*
X026310Y004849D01*
X026310Y004968D02*
X027259Y004968D01*
X027259Y005086D02*
X026403Y005086D01*
X026487Y005205D02*
X027259Y005205D01*
X027259Y005323D02*
X026870Y005323D01*
X026999Y005442D02*
X027259Y005442D01*
X027259Y005560D02*
X027129Y005560D01*
X026489Y006034D02*
X026300Y006034D01*
X026619Y006153D02*
X024209Y006153D01*
X024192Y006169D02*
X023959Y006169D01*
X023959Y005549D01*
X023879Y005549D01*
X023879Y005469D01*
X023259Y005469D01*
X023259Y005236D01*
X023646Y004849D01*
X023879Y004849D01*
X023879Y005469D01*
X023959Y005469D01*
X023959Y004849D01*
X024192Y004849D01*
X024579Y005236D01*
X024579Y005469D01*
X023959Y005469D01*
X023959Y005549D01*
X024579Y005549D01*
X024579Y005782D01*
X024192Y006169D01*
X024327Y006034D02*
X025538Y006034D01*
X025420Y005916D02*
X024446Y005916D01*
X024564Y005797D02*
X025345Y005797D01*
X025296Y005679D02*
X024579Y005679D01*
X024579Y005560D02*
X025278Y005560D01*
X025278Y005442D02*
X024579Y005442D01*
X024579Y005323D02*
X025302Y005323D01*
X025352Y005205D02*
X024548Y005205D01*
X024430Y005086D02*
X025436Y005086D01*
X025528Y004968D02*
X024311Y004968D01*
X024193Y004849D02*
X025528Y004849D01*
X025528Y004731D02*
X014475Y004731D01*
X014593Y004849D02*
X023645Y004849D01*
X023527Y004968D02*
X020636Y004968D01*
X020754Y005086D02*
X023408Y005086D01*
X023290Y005205D02*
X020761Y005205D01*
X020761Y005323D02*
X023259Y005323D01*
X023259Y005442D02*
X020744Y005442D01*
X020701Y005560D02*
X023259Y005560D01*
X023259Y005549D02*
X023879Y005549D01*
X023879Y006169D01*
X023646Y006169D01*
X023259Y005782D01*
X023259Y005549D01*
X023259Y005679D02*
X020701Y005679D01*
X020701Y005797D02*
X023274Y005797D01*
X023393Y005916D02*
X020752Y005916D01*
X020870Y006034D02*
X023511Y006034D01*
X023630Y006153D02*
X020989Y006153D01*
X021107Y006271D02*
X026659Y006271D01*
X026659Y006390D02*
X021226Y006390D01*
X021344Y006508D02*
X026659Y006508D01*
X026659Y006627D02*
X021463Y006627D01*
X021581Y006745D02*
X026659Y006745D01*
X026659Y006864D02*
X021700Y006864D01*
X021818Y006982D02*
X026659Y006982D01*
X026659Y007101D02*
X021937Y007101D01*
X022055Y007219D02*
X026659Y007219D01*
X026659Y007338D02*
X022174Y007338D01*
X022292Y007456D02*
X026659Y007456D01*
X026659Y007575D02*
X022411Y007575D01*
X022529Y007693D02*
X026659Y007693D01*
X026659Y007812D02*
X022648Y007812D01*
X022766Y007930D02*
X026659Y007930D01*
X026659Y008049D02*
X022885Y008049D01*
X023003Y008167D02*
X026659Y008167D01*
X026659Y008286D02*
X023122Y008286D01*
X023240Y008404D02*
X026659Y008404D01*
X026659Y008523D02*
X023359Y008523D01*
X023477Y008641D02*
X026659Y008641D01*
X026659Y008760D02*
X023596Y008760D01*
X023714Y008878D02*
X026659Y008878D01*
X026659Y008997D02*
X026377Y008997D01*
X026381Y008999D02*
X026446Y009046D01*
X026503Y009103D01*
X026551Y009169D01*
X026587Y009241D01*
X026612Y009317D01*
X026622Y009380D01*
X025818Y009380D01*
X025818Y009495D01*
X026622Y009495D01*
X026612Y009557D01*
X026587Y009634D01*
X026551Y009706D01*
X026503Y009771D01*
X026446Y009828D01*
X026381Y009876D01*
X026309Y009912D01*
X026233Y009937D01*
X026153Y009950D01*
X025818Y009950D01*
X025818Y009495D01*
X025702Y009495D01*
X025702Y009380D01*
X024898Y009380D01*
X024908Y009317D01*
X024933Y009241D01*
X024969Y009169D01*
X025017Y009103D01*
X025074Y009046D01*
X025139Y008999D01*
X025211Y008962D01*
X025287Y008937D01*
X025367Y008925D01*
X025702Y008925D01*
X025702Y009380D01*
X025818Y009380D01*
X025818Y008925D01*
X026153Y008925D01*
X026233Y008937D01*
X026309Y008962D01*
X026381Y008999D01*
X026512Y009115D02*
X026659Y009115D01*
X026659Y009234D02*
X026584Y009234D01*
X026618Y009352D02*
X026659Y009352D01*
X026659Y009471D02*
X025818Y009471D01*
X025702Y009471D02*
X024307Y009471D01*
X024425Y009589D02*
X024918Y009589D01*
X024908Y009557D02*
X024933Y009634D01*
X024969Y009706D01*
X025017Y009771D01*
X025074Y009828D01*
X025139Y009876D01*
X025211Y009912D01*
X025287Y009937D01*
X025367Y009950D01*
X025702Y009950D01*
X025702Y009495D01*
X024898Y009495D01*
X024908Y009557D01*
X024971Y009708D02*
X024544Y009708D01*
X024662Y009826D02*
X025072Y009826D01*
X025336Y009945D02*
X024781Y009945D01*
X024899Y010063D02*
X026550Y010063D01*
X026659Y009945D02*
X026184Y009945D01*
X026448Y009826D02*
X026659Y009826D01*
X026659Y009708D02*
X026549Y009708D01*
X026602Y009589D02*
X026659Y009589D01*
X025818Y009589D02*
X025702Y009589D01*
X025702Y009708D02*
X025818Y009708D01*
X025818Y009826D02*
X025702Y009826D01*
X025702Y009945D02*
X025818Y009945D01*
X026431Y010182D02*
X025018Y010182D01*
X025136Y010300D02*
X026313Y010300D01*
X026194Y010419D02*
X025255Y010419D01*
X025373Y010537D02*
X026076Y010537D01*
X025957Y010656D02*
X025492Y010656D01*
X025610Y010774D02*
X025839Y010774D01*
X024988Y011130D02*
X023611Y011130D01*
X023660Y011011D02*
X024884Y011011D01*
X024765Y010893D02*
X023661Y010893D01*
X023641Y010774D02*
X024647Y010774D01*
X024528Y010656D02*
X023592Y010656D01*
X023478Y010537D02*
X024410Y010537D01*
X024291Y010419D02*
X022820Y010419D01*
X022690Y010300D02*
X024173Y010300D01*
X024054Y010182D02*
X022559Y010182D01*
X022429Y010063D02*
X023936Y010063D01*
X023817Y009945D02*
X022299Y009945D01*
X022168Y009826D02*
X023699Y009826D01*
X023580Y009708D02*
X022038Y009708D01*
X021907Y009589D02*
X023462Y009589D01*
X023343Y009471D02*
X021777Y009471D01*
X021646Y009352D02*
X023225Y009352D01*
X023106Y009234D02*
X021516Y009234D01*
X021385Y009115D02*
X022988Y009115D01*
X022869Y008997D02*
X021255Y008997D01*
X021125Y008878D02*
X022751Y008878D01*
X022632Y008760D02*
X020994Y008760D01*
X020864Y008641D02*
X022514Y008641D01*
X022395Y008523D02*
X020733Y008523D01*
X020603Y008404D02*
X022277Y008404D01*
X022158Y008286D02*
X020472Y008286D01*
X020342Y008167D02*
X022040Y008167D01*
X021921Y008049D02*
X020211Y008049D01*
X020081Y007930D02*
X021803Y007930D01*
X021684Y007812D02*
X019951Y007812D01*
X019820Y007693D02*
X021566Y007693D01*
X021447Y007575D02*
X019690Y007575D01*
X019559Y007456D02*
X021329Y007456D01*
X021210Y007338D02*
X019429Y007338D01*
X019298Y007219D02*
X021092Y007219D01*
X020973Y007101D02*
X019168Y007101D01*
X019037Y006982D02*
X020855Y006982D01*
X020736Y006864D02*
X018907Y006864D01*
X018778Y006745D02*
X020618Y006745D01*
X020499Y006627D02*
X016205Y006627D01*
X016205Y006508D02*
X020381Y006508D01*
X020262Y006390D02*
X015785Y006390D01*
X015675Y006390D02*
X014481Y006390D01*
X014599Y006271D02*
X015255Y006271D01*
X015256Y006153D02*
X014718Y006153D01*
X014826Y006034D02*
X015345Y006034D01*
X015675Y006034D02*
X015785Y006034D01*
X015785Y006153D02*
X015675Y006153D01*
X015675Y006271D02*
X015785Y006271D01*
X016115Y006034D02*
X020019Y006034D01*
X020019Y005916D02*
X014871Y005916D01*
X014871Y005797D02*
X020019Y005797D01*
X020019Y005679D02*
X014871Y005679D01*
X014871Y005560D02*
X020019Y005560D01*
X019976Y005442D02*
X014871Y005442D01*
X014871Y005323D02*
X019959Y005323D01*
X019959Y005205D02*
X014871Y005205D01*
X014824Y005086D02*
X019966Y005086D01*
X020084Y004968D02*
X014712Y004968D01*
X014339Y004612D02*
X020147Y004612D01*
X020028Y004494D02*
X013321Y004494D01*
X013321Y004612D02*
X014013Y004612D01*
X013883Y004731D02*
X013321Y004731D01*
X013321Y004849D02*
X013835Y004849D01*
X013835Y004968D02*
X013270Y004968D01*
X013151Y005086D02*
X013878Y005086D01*
X013985Y005205D02*
X013033Y005205D01*
X012914Y005323D02*
X014104Y005323D01*
X014189Y005442D02*
X012854Y005442D01*
X012719Y005560D02*
X014189Y005560D01*
X014189Y005679D02*
X010721Y005679D01*
X010721Y005797D02*
X014109Y005797D01*
X013991Y005916D02*
X010721Y005916D01*
X010896Y006034D02*
X013872Y006034D01*
X014362Y006508D02*
X015255Y006508D01*
X015255Y006627D02*
X014244Y006627D01*
X014166Y006745D02*
X015274Y006745D01*
X015274Y006864D02*
X014166Y006864D01*
X014166Y006982D02*
X015274Y006982D01*
X015186Y007101D02*
X014166Y007101D01*
X014166Y007219D02*
X015068Y007219D01*
X014949Y007338D02*
X014125Y007338D01*
X013994Y007456D02*
X014831Y007456D01*
X014712Y007575D02*
X013876Y007575D01*
X013757Y007693D02*
X014594Y007693D01*
X014475Y007812D02*
X013639Y007812D01*
X013520Y007930D02*
X014357Y007930D01*
X014238Y008049D02*
X013334Y008049D01*
X013396Y008167D02*
X014120Y008167D01*
X014001Y008286D02*
X013396Y008286D01*
X013396Y008404D02*
X013883Y008404D01*
X013764Y008523D02*
X013396Y008523D01*
X013396Y008641D02*
X013646Y008641D01*
X014135Y009115D02*
X014228Y009115D01*
X014305Y009039D02*
X014035Y009308D01*
X013914Y009308D01*
X013963Y009288D01*
X015871Y007380D01*
X016103Y007380D01*
X016133Y007350D01*
X018428Y007350D01*
X022111Y010696D01*
X022059Y010822D01*
X022059Y011009D01*
X022131Y011182D01*
X022263Y011314D01*
X022319Y011338D01*
X022319Y013326D01*
X022286Y013359D01*
X022219Y013521D01*
X022219Y014297D01*
X022283Y014450D01*
X022037Y014450D01*
X022101Y014297D01*
X022101Y013521D01*
X022034Y013359D01*
X021910Y013235D01*
X021748Y013168D01*
X021572Y013168D01*
X021410Y013235D01*
X021286Y013359D01*
X021219Y013521D01*
X021219Y013608D01*
X020885Y013608D01*
X020861Y013584D01*
X020861Y010149D01*
X020815Y010039D01*
X020730Y009954D01*
X019730Y008954D01*
X019620Y008908D01*
X014500Y008908D01*
X014390Y008954D01*
X014305Y009039D01*
X014305Y009039D01*
X014347Y008997D02*
X014254Y008997D01*
X014372Y008878D02*
X020111Y008878D01*
X019981Y008760D02*
X014491Y008760D01*
X014609Y008641D02*
X019850Y008641D01*
X019720Y008523D02*
X014728Y008523D01*
X014846Y008404D02*
X019589Y008404D01*
X019459Y008286D02*
X014965Y008286D01*
X015083Y008167D02*
X019328Y008167D01*
X019198Y008049D02*
X015202Y008049D01*
X015320Y007930D02*
X019068Y007930D01*
X018937Y007812D02*
X015439Y007812D01*
X015557Y007693D02*
X018807Y007693D01*
X018676Y007575D02*
X015676Y007575D01*
X015794Y007456D02*
X018546Y007456D01*
X020144Y006271D02*
X016205Y006271D01*
X016204Y006153D02*
X020052Y006153D01*
X020573Y004612D02*
X025528Y004612D01*
X025528Y004494D02*
X020692Y004494D01*
X020761Y004375D02*
X025528Y004375D01*
X025507Y004257D02*
X020761Y004257D01*
X020761Y004138D02*
X025389Y004138D01*
X025250Y004020D02*
X024621Y004020D01*
X024739Y003901D02*
X025060Y003901D01*
X024976Y003783D02*
X024858Y003783D01*
X024861Y003664D02*
X024930Y003664D01*
X024930Y003546D02*
X024861Y003546D01*
X024861Y003427D02*
X024957Y003427D01*
X025016Y003309D02*
X024784Y003309D01*
X024665Y003190D02*
X025143Y003190D01*
X024406Y003190D02*
X024366Y003190D01*
X024366Y003309D02*
X024406Y003309D01*
X024406Y003427D02*
X024366Y003427D01*
X024366Y003546D02*
X024406Y003546D01*
X024406Y003664D02*
X024366Y003664D01*
X024366Y003783D02*
X024406Y003783D01*
X024406Y003901D02*
X024366Y003901D01*
X024366Y004020D02*
X024406Y004020D01*
X024151Y004020D02*
X020688Y004020D01*
X020569Y003901D02*
X024033Y003901D01*
X023959Y004849D02*
X023879Y004849D01*
X023879Y004968D02*
X023959Y004968D01*
X023959Y005086D02*
X023879Y005086D01*
X023879Y005205D02*
X023959Y005205D01*
X023959Y005323D02*
X023879Y005323D01*
X023879Y005442D02*
X023959Y005442D01*
X023959Y005560D02*
X023879Y005560D01*
X023879Y005679D02*
X023959Y005679D01*
X023959Y005797D02*
X023879Y005797D01*
X023879Y005916D02*
X023959Y005916D01*
X023959Y006034D02*
X023879Y006034D01*
X023879Y006153D02*
X023959Y006153D01*
X019959Y004375D02*
X013321Y004375D01*
X013321Y004257D02*
X019959Y004257D01*
X019959Y004138D02*
X013321Y004138D01*
X013321Y004020D02*
X020032Y004020D01*
X019959Y003309D02*
X016520Y003309D01*
X016514Y003315D02*
X016382Y003370D01*
X016238Y003370D01*
X016106Y003315D01*
X016004Y003213D01*
X015949Y003081D01*
X015949Y002937D01*
X016004Y002805D01*
X016106Y002703D01*
X016238Y002648D01*
X016382Y002648D01*
X016514Y002703D01*
X016616Y002805D01*
X016671Y002937D01*
X016671Y003081D01*
X016616Y003213D01*
X016514Y003315D01*
X016625Y003190D02*
X019962Y003190D01*
X020080Y003072D02*
X016671Y003072D01*
X016671Y002953D02*
X027259Y002953D01*
X027259Y002835D02*
X016628Y002835D01*
X016528Y002716D02*
X020123Y002716D01*
X020340Y002716D02*
X020380Y002716D01*
X020380Y002598D02*
X020340Y002598D01*
X020340Y002479D02*
X020380Y002479D01*
X020380Y002361D02*
X025711Y002361D01*
X025624Y002242D02*
X020780Y002242D01*
X020719Y002124D02*
X025555Y002124D01*
X025830Y002479D02*
X020780Y002479D01*
X020715Y002598D02*
X026007Y002598D01*
X026322Y002716D02*
X020597Y002716D01*
X019940Y002242D02*
X013321Y002242D01*
X013321Y002124D02*
X020001Y002124D01*
X020120Y002005D02*
X013321Y002005D01*
X014528Y002716D02*
X015092Y002716D01*
X015106Y002703D02*
X015238Y002648D01*
X015382Y002648D01*
X015514Y002703D01*
X015616Y002805D01*
X015671Y002937D01*
X015671Y003081D01*
X015616Y003213D01*
X015514Y003315D01*
X015382Y003370D01*
X015238Y003370D01*
X015106Y003315D01*
X015004Y003213D01*
X014949Y003081D01*
X014949Y002937D01*
X015004Y002805D01*
X015106Y002703D01*
X014992Y002835D02*
X014628Y002835D01*
X014671Y002953D02*
X014949Y002953D01*
X014949Y003072D02*
X014671Y003072D01*
X014625Y003190D02*
X014995Y003190D01*
X015100Y003309D02*
X014520Y003309D01*
X015520Y003309D02*
X016100Y003309D01*
X015995Y003190D02*
X015625Y003190D01*
X015671Y003072D02*
X015949Y003072D01*
X015949Y002953D02*
X015671Y002953D01*
X015628Y002835D02*
X015992Y002835D01*
X016092Y002716D02*
X015528Y002716D01*
X012799Y004496D02*
X012799Y004701D01*
X012665Y004835D01*
X012600Y004808D01*
X011920Y004808D01*
X011788Y004863D01*
X011788Y004733D01*
X011510Y004733D01*
X011510Y004733D01*
X011788Y004733D01*
X011788Y004555D01*
X011920Y004610D01*
X012600Y004610D01*
X012747Y004549D01*
X012799Y004496D01*
X012799Y004612D02*
X011788Y004612D01*
X011788Y004731D02*
X012769Y004731D01*
X011821Y004849D02*
X011788Y004849D01*
X011510Y004849D02*
X011510Y004849D01*
X011510Y004968D02*
X011510Y004968D01*
X011510Y005086D02*
X011510Y005086D01*
X011510Y005205D02*
X011510Y005205D01*
X011510Y005323D02*
X011510Y005323D01*
X011362Y005323D02*
X010771Y005323D01*
X010750Y005442D02*
X011666Y005442D01*
X011801Y005560D02*
X010721Y005560D01*
X010896Y006153D02*
X011904Y006153D01*
X011904Y006271D02*
X010896Y006271D01*
X010896Y006390D02*
X011904Y006390D01*
X011904Y006508D02*
X010896Y006508D01*
X010896Y006627D02*
X011904Y006627D01*
X011904Y006745D02*
X010893Y006745D01*
X010915Y006864D02*
X011904Y006864D01*
X011904Y006982D02*
X010915Y006982D01*
X010915Y007219D02*
X011665Y007219D01*
X011784Y007101D02*
X010520Y007101D01*
X010915Y007338D02*
X011546Y007338D01*
X012000Y007505D02*
X012000Y007905D01*
X011660Y008167D02*
X009451Y008167D01*
X009451Y008049D02*
X011541Y008049D01*
X011529Y008036D02*
X010008Y008036D01*
X009958Y008042D01*
X009940Y008036D01*
X009922Y008036D01*
X009876Y008017D01*
X009828Y008003D01*
X009814Y007991D01*
X009797Y007984D01*
X009761Y007949D01*
X009584Y007805D01*
X009567Y007798D01*
X009532Y007762D01*
X009493Y007731D01*
X009484Y007715D01*
X009471Y007702D01*
X009452Y007656D01*
X009451Y007653D01*
X009451Y008327D01*
X009431Y008375D01*
X009431Y008732D01*
X009401Y008762D01*
X009401Y009168D01*
X010061Y009828D01*
X010508Y009828D01*
X010633Y009880D01*
X010729Y009976D01*
X010781Y010101D01*
X010781Y010237D01*
X010729Y010362D01*
X010683Y010408D01*
X011535Y010408D01*
X012574Y009370D01*
X012567Y009370D01*
X012484Y009287D01*
X012484Y008738D01*
X012373Y008738D01*
X012306Y008738D01*
X012305Y008737D01*
X012304Y008737D01*
X012242Y008712D01*
X012181Y008686D01*
X012180Y008685D01*
X012179Y008685D01*
X012132Y008638D01*
X011529Y008036D01*
X011779Y008286D02*
X009451Y008286D01*
X009431Y008404D02*
X011898Y008404D01*
X012017Y008523D02*
X009431Y008523D01*
X009431Y008641D02*
X012136Y008641D01*
X012484Y008760D02*
X009403Y008760D01*
X009401Y008878D02*
X012484Y008878D01*
X012484Y008997D02*
X009401Y008997D01*
X009401Y009115D02*
X012484Y009115D01*
X012484Y009234D02*
X009467Y009234D01*
X009585Y009352D02*
X012549Y009352D01*
X012473Y009471D02*
X009704Y009471D01*
X009822Y009589D02*
X012354Y009589D01*
X012236Y009708D02*
X009941Y009708D01*
X010059Y009826D02*
X012117Y009826D01*
X011999Y009945D02*
X010698Y009945D01*
X010765Y010063D02*
X011880Y010063D01*
X011762Y010182D02*
X010781Y010182D01*
X010754Y010300D02*
X011643Y010300D01*
X012138Y010656D02*
X017128Y010656D01*
X017131Y010649D02*
X017263Y010516D01*
X017436Y010445D01*
X018284Y010445D01*
X018457Y010516D01*
X018589Y010649D01*
X018661Y010822D01*
X018661Y011009D01*
X018589Y011182D01*
X018457Y011314D01*
X018284Y011386D01*
X018101Y011386D01*
X018101Y013326D01*
X018134Y013359D01*
X018201Y013521D01*
X018201Y014297D01*
X018137Y014450D01*
X018383Y014450D01*
X018319Y014297D01*
X018319Y013521D01*
X018386Y013359D01*
X018510Y013235D01*
X018672Y013168D01*
X018848Y013168D01*
X019010Y013235D01*
X019134Y013359D01*
X019201Y013521D01*
X019201Y014297D01*
X019137Y014450D01*
X019383Y014450D01*
X019319Y014297D01*
X019319Y013521D01*
X019386Y013359D01*
X019510Y013235D01*
X019672Y013168D01*
X019848Y013168D01*
X020010Y013235D01*
X020134Y013359D01*
X020201Y013521D01*
X020201Y013608D01*
X020253Y013608D01*
X020259Y013602D01*
X020259Y010334D01*
X019435Y009510D01*
X014685Y009510D01*
X014415Y009779D01*
X014330Y009864D01*
X014220Y009910D01*
X012885Y009910D01*
X011915Y010879D01*
X011830Y010964D01*
X011720Y011010D01*
X009600Y011010D01*
X009502Y010969D01*
X009601Y011068D01*
X011528Y011068D01*
X011653Y011120D01*
X014101Y013568D01*
X017319Y013568D01*
X017319Y013521D01*
X017386Y013359D01*
X017419Y013326D01*
X017419Y011379D01*
X017263Y011314D01*
X017131Y011182D01*
X017059Y011009D01*
X017059Y010822D01*
X017131Y010649D01*
X017079Y010774D02*
X012020Y010774D01*
X011901Y010893D02*
X017059Y010893D01*
X017060Y011011D02*
X009544Y011011D01*
X008936Y011367D02*
X004201Y011367D01*
X004201Y011485D02*
X009055Y011485D01*
X009173Y011604D02*
X004201Y011604D01*
X004201Y011722D02*
X009326Y011722D01*
X009267Y011698D02*
X007367Y009798D01*
X007271Y009702D01*
X007219Y009577D01*
X007219Y007372D01*
X007207Y007360D01*
X006433Y007360D01*
X006403Y007390D01*
X005657Y007390D01*
X005574Y007307D01*
X005574Y006760D01*
X005216Y006760D01*
X005216Y007297D01*
X005133Y007380D01*
X005101Y007380D01*
X005101Y007398D01*
X005388Y007398D01*
X005513Y007450D01*
X005609Y007546D01*
X005661Y007671D01*
X005661Y007807D01*
X005609Y007932D01*
X005513Y008028D01*
X005388Y008080D01*
X004692Y008080D01*
X004567Y008028D01*
X004471Y007932D01*
X004419Y007807D01*
X004419Y007380D01*
X004387Y007380D01*
X004304Y007297D01*
X004304Y006760D01*
X004291Y006760D01*
X004201Y006850D01*
X004201Y014068D01*
X004583Y014450D01*
X017383Y014450D01*
X017319Y014297D01*
X017319Y014250D01*
X013892Y014250D01*
X013767Y014198D01*
X013671Y014102D01*
X011319Y011750D01*
X009392Y011750D01*
X009267Y011698D01*
X008818Y011248D02*
X004201Y011248D01*
X004201Y011130D02*
X008699Y011130D01*
X008581Y011011D02*
X004201Y011011D01*
X004201Y010893D02*
X008462Y010893D01*
X008344Y010774D02*
X004201Y010774D01*
X004201Y010656D02*
X008225Y010656D01*
X008107Y010537D02*
X004201Y010537D01*
X004201Y010419D02*
X007988Y010419D01*
X007870Y010300D02*
X004201Y010300D01*
X004201Y010182D02*
X007751Y010182D01*
X007633Y010063D02*
X004201Y010063D01*
X004201Y009945D02*
X007514Y009945D01*
X007396Y009826D02*
X004201Y009826D01*
X004201Y009708D02*
X007277Y009708D01*
X007225Y009589D02*
X004201Y009589D01*
X004201Y009471D02*
X007219Y009471D01*
X007219Y009352D02*
X004201Y009352D01*
X004201Y009234D02*
X007219Y009234D01*
X007219Y009115D02*
X004201Y009115D01*
X004201Y008997D02*
X007219Y008997D01*
X007219Y008878D02*
X004201Y008878D01*
X004201Y008760D02*
X007219Y008760D01*
X007219Y008641D02*
X004201Y008641D01*
X004201Y008523D02*
X007219Y008523D01*
X007219Y008404D02*
X004201Y008404D01*
X004201Y008286D02*
X007219Y008286D01*
X007219Y008167D02*
X004201Y008167D01*
X004201Y008049D02*
X004618Y008049D01*
X004471Y007930D02*
X004201Y007930D01*
X004201Y007812D02*
X004421Y007812D01*
X004419Y007693D02*
X004201Y007693D01*
X004201Y007575D02*
X004419Y007575D01*
X004419Y007456D02*
X004201Y007456D01*
X004201Y007338D02*
X004345Y007338D01*
X004304Y007219D02*
X004201Y007219D01*
X004201Y007101D02*
X004304Y007101D01*
X004304Y006982D02*
X004201Y006982D01*
X004201Y006864D02*
X004304Y006864D01*
X003519Y006864D02*
X001208Y006864D01*
X001208Y006982D02*
X003519Y006982D01*
X003519Y007101D02*
X001208Y007101D01*
X001208Y007219D02*
X003519Y007219D01*
X003519Y007338D02*
X001208Y007338D01*
X001208Y007456D02*
X003519Y007456D01*
X003519Y007575D02*
X001208Y007575D01*
X001208Y007693D02*
X003519Y007693D01*
X003519Y007812D02*
X001208Y007812D01*
X001208Y007930D02*
X003519Y007930D01*
X003519Y008049D02*
X001208Y008049D01*
X001208Y008167D02*
X003519Y008167D01*
X003519Y008286D02*
X001208Y008286D01*
X001208Y008404D02*
X003519Y008404D01*
X003519Y008523D02*
X001208Y008523D01*
X001208Y008641D02*
X003519Y008641D01*
X003519Y008760D02*
X001208Y008760D01*
X001208Y008878D02*
X003519Y008878D01*
X003519Y008997D02*
X002477Y008997D01*
X002612Y009115D02*
X003519Y009115D01*
X003519Y009234D02*
X002684Y009234D01*
X002718Y009352D02*
X003519Y009352D01*
X003519Y009471D02*
X001918Y009471D01*
X001918Y009589D02*
X001802Y009589D01*
X001802Y009708D02*
X001918Y009708D01*
X001918Y009826D02*
X001802Y009826D01*
X001802Y009945D02*
X001918Y009945D01*
X001436Y009945D02*
X001208Y009945D01*
X001208Y010063D02*
X003519Y010063D01*
X003519Y009945D02*
X002284Y009945D01*
X002548Y009826D02*
X003519Y009826D01*
X003519Y009708D02*
X002649Y009708D01*
X002702Y009589D02*
X003519Y009589D01*
X003519Y010182D02*
X001208Y010182D01*
X001208Y010300D02*
X003519Y010300D01*
X003519Y010419D02*
X001208Y010419D01*
X001208Y010537D02*
X003519Y010537D01*
X003519Y010656D02*
X001208Y010656D01*
X001208Y010774D02*
X003519Y010774D01*
X003519Y010893D02*
X001261Y010893D01*
X000751Y011485D02*
X000620Y011485D01*
X000620Y011604D02*
X000881Y011604D01*
X001008Y011722D02*
X000620Y011722D01*
X000620Y011841D02*
X001269Y011841D01*
X000620Y011959D02*
X003519Y011959D01*
X003519Y011841D02*
X002451Y011841D01*
X002593Y011722D02*
X003519Y011722D01*
X003519Y011604D02*
X002664Y011604D01*
X002706Y011485D02*
X003519Y011485D01*
X003519Y011367D02*
X002706Y011367D01*
X002681Y011248D02*
X003519Y011248D01*
X003519Y011130D02*
X002632Y011130D01*
X002516Y011011D02*
X003519Y011011D01*
X004201Y011841D02*
X011410Y011841D01*
X011529Y011959D02*
X004201Y011959D01*
X004201Y012078D02*
X011647Y012078D01*
X011766Y012196D02*
X004201Y012196D01*
X004201Y012315D02*
X011884Y012315D01*
X012003Y012433D02*
X004201Y012433D01*
X004201Y012552D02*
X012121Y012552D01*
X012240Y012670D02*
X004201Y012670D01*
X004201Y012789D02*
X012358Y012789D01*
X012477Y012907D02*
X004201Y012907D01*
X004201Y013026D02*
X012595Y013026D01*
X012714Y013144D02*
X004201Y013144D01*
X004201Y013263D02*
X012832Y013263D01*
X012951Y013381D02*
X004201Y013381D01*
X004201Y013500D02*
X013069Y013500D01*
X013188Y013618D02*
X004201Y013618D01*
X004201Y013737D02*
X013306Y013737D01*
X013425Y013855D02*
X004201Y013855D01*
X004201Y013974D02*
X013543Y013974D01*
X013662Y014092D02*
X004225Y014092D01*
X004344Y014211D02*
X013799Y014211D01*
X014033Y013500D02*
X017328Y013500D01*
X017377Y013381D02*
X013914Y013381D01*
X013796Y013263D02*
X017419Y013263D01*
X017419Y013144D02*
X013677Y013144D01*
X013559Y013026D02*
X017419Y013026D01*
X017419Y012907D02*
X013440Y012907D01*
X013322Y012789D02*
X017419Y012789D01*
X017419Y012670D02*
X013203Y012670D01*
X013085Y012552D02*
X017419Y012552D01*
X017419Y012433D02*
X012966Y012433D01*
X012848Y012315D02*
X017419Y012315D01*
X017419Y012196D02*
X012729Y012196D01*
X012611Y012078D02*
X017419Y012078D01*
X017419Y011959D02*
X012492Y011959D01*
X012374Y011841D02*
X017419Y011841D01*
X017419Y011722D02*
X012255Y011722D01*
X012137Y011604D02*
X017419Y011604D01*
X017419Y011485D02*
X012018Y011485D01*
X011900Y011367D02*
X017390Y011367D01*
X017197Y011248D02*
X011781Y011248D01*
X011663Y011130D02*
X017109Y011130D01*
X018101Y011485D02*
X020259Y011485D01*
X020259Y011367D02*
X018330Y011367D01*
X018523Y011248D02*
X020259Y011248D01*
X020259Y011130D02*
X018611Y011130D01*
X018660Y011011D02*
X020259Y011011D01*
X020259Y010893D02*
X018661Y010893D01*
X018641Y010774D02*
X020259Y010774D01*
X020259Y010656D02*
X018592Y010656D01*
X018478Y010537D02*
X020259Y010537D01*
X020259Y010419D02*
X012375Y010419D01*
X012257Y010537D02*
X017242Y010537D01*
X018101Y011604D02*
X020259Y011604D01*
X020259Y011722D02*
X018101Y011722D01*
X018101Y011841D02*
X020259Y011841D01*
X020259Y011959D02*
X018101Y011959D01*
X018101Y012078D02*
X020259Y012078D01*
X020259Y012196D02*
X018101Y012196D01*
X018101Y012315D02*
X020259Y012315D01*
X020259Y012433D02*
X018101Y012433D01*
X018101Y012552D02*
X020259Y012552D01*
X020259Y012670D02*
X018101Y012670D01*
X018101Y012789D02*
X020259Y012789D01*
X020259Y012907D02*
X018101Y012907D01*
X018101Y013026D02*
X020259Y013026D01*
X020259Y013144D02*
X018101Y013144D01*
X018101Y013263D02*
X018483Y013263D01*
X018377Y013381D02*
X018143Y013381D01*
X018192Y013500D02*
X018328Y013500D01*
X018319Y013618D02*
X018201Y013618D01*
X018201Y013737D02*
X018319Y013737D01*
X018319Y013855D02*
X018201Y013855D01*
X018201Y013974D02*
X018319Y013974D01*
X018319Y014092D02*
X018201Y014092D01*
X018201Y014211D02*
X018319Y014211D01*
X018333Y014329D02*
X018187Y014329D01*
X018138Y014448D02*
X018382Y014448D01*
X019138Y014448D02*
X019382Y014448D01*
X019333Y014329D02*
X019187Y014329D01*
X019201Y014211D02*
X019319Y014211D01*
X019319Y014092D02*
X019201Y014092D01*
X019201Y013974D02*
X019319Y013974D01*
X019319Y013855D02*
X019201Y013855D01*
X019201Y013737D02*
X019319Y013737D01*
X019319Y013618D02*
X019201Y013618D01*
X019192Y013500D02*
X019328Y013500D01*
X019377Y013381D02*
X019143Y013381D01*
X019037Y013263D02*
X019483Y013263D01*
X020037Y013263D02*
X020259Y013263D01*
X020259Y013381D02*
X020143Y013381D01*
X020192Y013500D02*
X020259Y013500D01*
X020560Y013585D02*
X020240Y013905D01*
X020861Y013500D02*
X021228Y013500D01*
X021277Y013381D02*
X020861Y013381D01*
X020861Y013263D02*
X021383Y013263D01*
X020861Y013144D02*
X022319Y013144D01*
X022319Y013026D02*
X020861Y013026D01*
X020861Y012907D02*
X022319Y012907D01*
X022319Y012789D02*
X020861Y012789D01*
X020861Y012670D02*
X022319Y012670D01*
X022319Y012552D02*
X020861Y012552D01*
X020861Y012433D02*
X022319Y012433D01*
X022319Y012315D02*
X020861Y012315D01*
X020861Y012196D02*
X022319Y012196D01*
X022319Y012078D02*
X020861Y012078D01*
X020861Y011959D02*
X022319Y011959D01*
X022319Y011841D02*
X020861Y011841D01*
X020861Y011722D02*
X022319Y011722D01*
X022319Y011604D02*
X020861Y011604D01*
X020861Y011485D02*
X022319Y011485D01*
X022319Y011367D02*
X020861Y011367D01*
X020861Y011248D02*
X022197Y011248D01*
X022109Y011130D02*
X020861Y011130D01*
X020861Y011011D02*
X022060Y011011D01*
X022059Y010893D02*
X020861Y010893D01*
X020861Y010774D02*
X022079Y010774D01*
X022068Y010656D02*
X020861Y010656D01*
X020861Y010537D02*
X021937Y010537D01*
X021807Y010419D02*
X020861Y010419D01*
X020861Y010300D02*
X021676Y010300D01*
X021546Y010182D02*
X020861Y010182D01*
X020825Y010063D02*
X021416Y010063D01*
X021285Y009945D02*
X020721Y009945D01*
X020603Y009826D02*
X021155Y009826D01*
X021024Y009708D02*
X020484Y009708D01*
X020366Y009589D02*
X020894Y009589D01*
X020763Y009471D02*
X020247Y009471D01*
X020129Y009352D02*
X020633Y009352D01*
X020502Y009234D02*
X020010Y009234D01*
X019892Y009115D02*
X020372Y009115D01*
X020242Y008997D02*
X019773Y008997D01*
X019515Y009589D02*
X014605Y009589D01*
X014486Y009708D02*
X019634Y009708D01*
X019752Y009826D02*
X014368Y009826D01*
X014110Y009234D02*
X014017Y009234D01*
X012849Y009945D02*
X019871Y009945D01*
X019989Y010063D02*
X012731Y010063D01*
X012612Y010182D02*
X020108Y010182D01*
X020226Y010300D02*
X012494Y010300D01*
X009739Y007930D02*
X009451Y007930D01*
X009451Y007812D02*
X009593Y007812D01*
X009468Y007693D02*
X009451Y007693D01*
X007219Y007693D02*
X005661Y007693D01*
X005659Y007812D02*
X007219Y007812D01*
X007219Y007930D02*
X005609Y007930D01*
X005462Y008049D02*
X007219Y008049D01*
X007219Y007575D02*
X005621Y007575D01*
X005519Y007456D02*
X007219Y007456D01*
X007154Y006627D02*
X006486Y006627D01*
X006486Y006508D02*
X007154Y006508D01*
X007154Y006390D02*
X006486Y006390D01*
X006486Y006271D02*
X007154Y006271D01*
X007154Y006153D02*
X006486Y006153D01*
X007269Y006034D02*
X004368Y006034D01*
X004486Y005916D02*
X007269Y005916D01*
X007269Y005797D02*
X004605Y005797D01*
X004620Y005679D02*
X007269Y005679D01*
X007269Y005560D02*
X004620Y005560D01*
X004620Y005442D02*
X007269Y005442D01*
X007269Y005323D02*
X004620Y005323D01*
X004589Y005205D02*
X007269Y005205D01*
X007271Y005086D02*
X004471Y005086D01*
X004352Y004968D02*
X007320Y004968D01*
X007438Y004849D02*
X004234Y004849D01*
X004000Y004849D02*
X003920Y004849D01*
X003920Y004968D02*
X004000Y004968D01*
X004000Y005086D02*
X003920Y005086D01*
X003920Y005205D02*
X004000Y005205D01*
X004000Y005323D02*
X003920Y005323D01*
X003920Y005442D02*
X004000Y005442D01*
X003449Y005086D02*
X002444Y005086D01*
X002528Y005205D02*
X003331Y005205D01*
X003300Y005323D02*
X002577Y005323D01*
X002601Y005442D02*
X003300Y005442D01*
X003300Y005560D02*
X002601Y005560D01*
X002583Y005679D02*
X003300Y005679D01*
X003315Y005797D02*
X002534Y005797D01*
X002459Y005916D02*
X003434Y005916D01*
X003552Y006034D02*
X002341Y006034D01*
X001769Y006153D02*
X003671Y006153D01*
X003816Y006271D02*
X001650Y006271D01*
X001532Y006390D02*
X003697Y006390D01*
X003579Y006508D02*
X001413Y006508D01*
X001295Y006627D02*
X003525Y006627D01*
X003519Y006745D02*
X001208Y006745D01*
X000664Y006153D02*
X000620Y006153D01*
X000620Y006034D02*
X000782Y006034D01*
X000901Y005916D02*
X000620Y005916D01*
X000620Y005797D02*
X001019Y005797D01*
X001138Y005679D02*
X000620Y005679D01*
X000620Y005560D02*
X001256Y005560D01*
X001319Y005442D02*
X000620Y005442D01*
X000620Y005323D02*
X001343Y005323D01*
X001392Y005205D02*
X000620Y005205D01*
X000620Y005086D02*
X001476Y005086D01*
X001569Y004968D02*
X000620Y004968D01*
X000620Y004849D02*
X001569Y004849D01*
X001569Y004731D02*
X000620Y004731D01*
X000620Y004612D02*
X001569Y004612D01*
X001569Y004494D02*
X000620Y004494D01*
X000620Y004375D02*
X001569Y004375D01*
X001600Y004257D02*
X000620Y004257D01*
X000620Y004138D02*
X001678Y004138D01*
X001797Y004020D02*
X000620Y004020D01*
X000620Y003901D02*
X001915Y003901D01*
X002019Y003783D02*
X000620Y003783D01*
X000620Y003664D02*
X002068Y003664D01*
X002179Y003546D02*
X000620Y003546D01*
X000620Y003427D02*
X008657Y003427D01*
X008608Y003309D02*
X000620Y003309D01*
X000620Y003190D02*
X008599Y003190D01*
X008623Y003072D02*
X000620Y003072D01*
X000620Y002953D02*
X008689Y002953D01*
X008856Y002835D02*
X000620Y002835D01*
X000620Y002716D02*
X001125Y002716D01*
X001557Y002716D02*
X009749Y002716D01*
X009749Y002598D02*
X009682Y002598D01*
X009280Y002598D02*
X009240Y002598D01*
X009240Y002479D02*
X009280Y002479D01*
X009280Y002361D02*
X009240Y002361D01*
X009240Y002242D02*
X009280Y002242D01*
X009280Y002124D02*
X009240Y002124D01*
X009240Y002005D02*
X009280Y002005D01*
X009280Y001887D02*
X009240Y001887D01*
X008729Y001887D02*
X007780Y001887D01*
X007780Y001879D02*
X007780Y002033D01*
X007534Y002279D01*
X007380Y002279D01*
X007380Y001879D01*
X007780Y001879D01*
X007780Y001839D02*
X007380Y001839D01*
X007380Y001439D01*
X007534Y001439D01*
X007780Y001685D01*
X007780Y001839D01*
X007780Y001768D02*
X010032Y001768D01*
X010150Y001650D02*
X007745Y001650D01*
X007626Y001531D02*
X010269Y001531D01*
X010387Y001413D02*
X002407Y001413D01*
X002431Y001531D02*
X007094Y001531D01*
X007186Y001439D02*
X006940Y001685D01*
X006940Y001839D01*
X007340Y001839D01*
X007380Y001839D01*
X007380Y001879D01*
X007340Y001879D01*
X007340Y001839D01*
X007340Y001439D01*
X007186Y001439D01*
X007340Y001531D02*
X007380Y001531D01*
X007380Y001650D02*
X007340Y001650D01*
X007340Y001768D02*
X007380Y001768D01*
X007340Y001879D02*
X006940Y001879D01*
X006940Y002033D01*
X007186Y002279D01*
X007340Y002279D01*
X007340Y001879D01*
X007340Y001887D02*
X007380Y001887D01*
X007380Y002005D02*
X007340Y002005D01*
X007340Y002124D02*
X007380Y002124D01*
X007380Y002242D02*
X007340Y002242D01*
X007149Y002242D02*
X002255Y002242D01*
X002324Y002124D02*
X007031Y002124D01*
X006940Y002005D02*
X002373Y002005D01*
X002405Y001887D02*
X006940Y001887D01*
X006940Y001768D02*
X002431Y001768D01*
X002431Y001650D02*
X006975Y001650D01*
X007780Y002005D02*
X008632Y002005D01*
X008588Y002124D02*
X007689Y002124D01*
X007571Y002242D02*
X008580Y002242D01*
X008608Y002361D02*
X002168Y002361D01*
X002049Y002479D02*
X008677Y002479D01*
X008838Y002598D02*
X001872Y002598D01*
X000810Y002598D02*
X000620Y002598D01*
X000620Y002479D02*
X000633Y002479D01*
X002375Y001294D02*
X010506Y001294D01*
X009913Y001887D02*
X009791Y001887D01*
X009751Y002835D02*
X009664Y002835D01*
X008770Y003546D02*
X007614Y003546D01*
X007526Y003458D02*
X007761Y003693D01*
X007761Y004025D01*
X007526Y004260D01*
X007194Y004260D01*
X006959Y004025D01*
X006959Y003693D01*
X007194Y003458D01*
X007526Y003458D01*
X007732Y003664D02*
X009347Y003664D01*
X009325Y003783D02*
X007761Y003783D01*
X007761Y003901D02*
X008412Y003901D01*
X008267Y004020D02*
X007761Y004020D01*
X007647Y004138D02*
X008149Y004138D01*
X008030Y004257D02*
X007529Y004257D01*
X007793Y004494D02*
X002428Y004494D01*
X002351Y004612D02*
X007675Y004612D01*
X007556Y004731D02*
X002351Y004731D01*
X002351Y004849D02*
X003686Y004849D01*
X003568Y004968D02*
X002351Y004968D01*
X002546Y004375D02*
X003255Y004375D01*
X003263Y004384D02*
X002985Y004106D01*
X002985Y003929D01*
X003440Y003929D01*
X003440Y003889D01*
X003480Y003889D01*
X003480Y003434D01*
X003657Y003434D01*
X003935Y003712D01*
X003935Y003889D01*
X003480Y003889D01*
X003480Y003929D01*
X003935Y003929D01*
X003935Y004106D01*
X003657Y004384D01*
X003480Y004384D01*
X003480Y003929D01*
X003440Y003929D01*
X003440Y004384D01*
X003263Y004384D01*
X003440Y004375D02*
X003480Y004375D01*
X003480Y004257D02*
X003440Y004257D01*
X003440Y004138D02*
X003480Y004138D01*
X003480Y004020D02*
X003440Y004020D01*
X003440Y003901D02*
X002916Y003901D01*
X002985Y003889D02*
X002985Y003712D01*
X003263Y003434D01*
X003440Y003434D01*
X003440Y003889D01*
X002985Y003889D01*
X002985Y003783D02*
X002901Y003783D01*
X002852Y003664D02*
X003033Y003664D01*
X003151Y003546D02*
X002741Y003546D01*
X002907Y004020D02*
X002985Y004020D01*
X003018Y004138D02*
X002858Y004138D01*
X002757Y004257D02*
X003136Y004257D01*
X003480Y003901D02*
X006959Y003901D01*
X006959Y003783D02*
X003935Y003783D01*
X003887Y003664D02*
X006988Y003664D01*
X007106Y003546D02*
X003769Y003546D01*
X003480Y003546D02*
X003440Y003546D01*
X003440Y003664D02*
X003480Y003664D01*
X003480Y003783D02*
X003440Y003783D01*
X003935Y004020D02*
X006959Y004020D01*
X007073Y004138D02*
X003902Y004138D01*
X003784Y004257D02*
X007191Y004257D01*
X007912Y004375D02*
X003665Y004375D01*
X005216Y006864D02*
X005574Y006864D01*
X005574Y006982D02*
X005216Y006982D01*
X005216Y007101D02*
X005574Y007101D01*
X005574Y007219D02*
X005216Y007219D01*
X005175Y007338D02*
X005605Y007338D01*
X001918Y008997D02*
X001802Y008997D01*
X001802Y009115D02*
X001918Y009115D01*
X001918Y009234D02*
X001802Y009234D01*
X001802Y009352D02*
X001918Y009352D01*
X001243Y008997D02*
X001208Y008997D01*
X000620Y012078D02*
X003519Y012078D01*
X003519Y012196D02*
X000620Y012196D01*
X000620Y012315D02*
X003519Y012315D01*
X003519Y012433D02*
X000620Y012433D01*
X000620Y012552D02*
X003519Y012552D01*
X003519Y012670D02*
X000620Y012670D01*
X000620Y012789D02*
X003519Y012789D01*
X003519Y012907D02*
X000620Y012907D01*
X000620Y013026D02*
X003519Y013026D01*
X003519Y013144D02*
X000620Y013144D01*
X000620Y013263D02*
X000861Y013263D01*
X000663Y013381D02*
X000620Y013381D01*
X001821Y013263D02*
X003519Y013263D01*
X003519Y013381D02*
X002019Y013381D01*
X002138Y013500D02*
X003519Y013500D01*
X003519Y013618D02*
X002238Y013618D01*
X002307Y013737D02*
X003519Y013737D01*
X003519Y013855D02*
X002365Y013855D01*
X002397Y013974D02*
X003519Y013974D01*
X003519Y014092D02*
X002429Y014092D01*
X002431Y014211D02*
X003519Y014211D01*
X003541Y014329D02*
X002431Y014329D01*
X002415Y014448D02*
X003617Y014448D01*
X003736Y014566D02*
X002383Y014566D01*
X002345Y014685D02*
X003854Y014685D01*
X003973Y014803D02*
X002277Y014803D01*
X002205Y014922D02*
X004091Y014922D01*
X004581Y014448D02*
X017382Y014448D01*
X017333Y014329D02*
X004462Y014329D01*
X021937Y013263D02*
X022319Y013263D01*
X022277Y013381D02*
X022043Y013381D01*
X022092Y013500D02*
X022228Y013500D01*
X022219Y013618D02*
X022101Y013618D01*
X022101Y013737D02*
X022219Y013737D01*
X022219Y013855D02*
X022101Y013855D01*
X022101Y013974D02*
X022219Y013974D01*
X022219Y014092D02*
X022101Y014092D01*
X022101Y014211D02*
X022219Y014211D01*
X022233Y014329D02*
X022087Y014329D01*
X022038Y014448D02*
X022282Y014448D01*
X023038Y014448D02*
X023265Y014448D01*
X023215Y014329D02*
X023087Y014329D01*
X023101Y014211D02*
X023200Y014211D01*
X023200Y014092D02*
X023101Y014092D01*
X023101Y013974D02*
X023200Y013974D01*
X023200Y013855D02*
X023101Y013855D01*
X023101Y013737D02*
X023200Y013737D01*
X023200Y013618D02*
X023101Y013618D01*
X023092Y013500D02*
X023212Y013500D01*
X023260Y013381D02*
X023043Y013381D01*
X023001Y013263D02*
X023356Y013263D01*
X023620Y013263D02*
X023700Y013263D01*
X023700Y013381D02*
X023620Y013381D01*
X023620Y013500D02*
X023700Y013500D01*
X023700Y013618D02*
X023620Y013618D01*
X023620Y013737D02*
X023700Y013737D01*
X023700Y013855D02*
X023620Y013855D01*
X024120Y013855D02*
X024918Y013855D01*
X024918Y013737D02*
X024120Y013737D01*
X024120Y013618D02*
X024918Y013618D01*
X024918Y013500D02*
X024108Y013500D01*
X024060Y013381D02*
X024918Y013381D01*
X024918Y013263D02*
X023964Y013263D01*
X024918Y013144D02*
X023001Y013144D01*
X023001Y013026D02*
X024918Y013026D01*
X024918Y012907D02*
X023001Y012907D01*
X023001Y012789D02*
X024918Y012789D01*
X024918Y012670D02*
X023001Y012670D01*
X023001Y012552D02*
X024918Y012552D01*
X024918Y012433D02*
X023001Y012433D01*
X023001Y012315D02*
X024918Y012315D01*
X024918Y012196D02*
X023001Y012196D01*
X023001Y012078D02*
X024918Y012078D01*
X024918Y011959D02*
X023001Y011959D01*
X023001Y011841D02*
X024918Y011841D01*
X024940Y011722D02*
X023001Y011722D01*
X023001Y011604D02*
X024956Y011604D01*
X024914Y011485D02*
X023001Y011485D01*
X023330Y011367D02*
X024914Y011367D01*
X024939Y011248D02*
X023523Y011248D01*
X024188Y009352D02*
X024902Y009352D01*
X024936Y009234D02*
X024070Y009234D01*
X023951Y009115D02*
X025008Y009115D01*
X025143Y008997D02*
X023833Y008997D01*
X025702Y008997D02*
X025818Y008997D01*
X025818Y009115D02*
X025702Y009115D01*
X025702Y009234D02*
X025818Y009234D01*
X025818Y009352D02*
X025702Y009352D01*
X024912Y013974D02*
X024120Y013974D01*
X024120Y014092D02*
X024800Y014092D01*
X024688Y014211D02*
X024120Y014211D01*
X024105Y014329D02*
X024576Y014329D01*
X024465Y014448D02*
X024055Y014448D01*
X026754Y002716D02*
X027259Y002716D01*
X027259Y002598D02*
X027069Y002598D01*
X027246Y002479D02*
X027259Y002479D01*
M02*
