G75*
G70*
%OFA0B0*%
%FSLAX24Y24*%
%IPPOS*%
%LPD*%
%AMOC8*
5,1,8,0,0,1.08239X$1,22.5*
%
%ADD10C,0.0000*%
D10*
X000160Y000465D02*
X000160Y015426D01*
X027719Y015426D01*
X027719Y000465D01*
X000160Y000465D01*
X000711Y001646D02*
X000713Y001696D01*
X000719Y001746D01*
X000729Y001795D01*
X000743Y001843D01*
X000760Y001890D01*
X000781Y001935D01*
X000806Y001979D01*
X000834Y002020D01*
X000866Y002059D01*
X000900Y002096D01*
X000937Y002130D01*
X000977Y002160D01*
X001019Y002187D01*
X001063Y002211D01*
X001109Y002232D01*
X001156Y002248D01*
X001204Y002261D01*
X001254Y002270D01*
X001303Y002275D01*
X001354Y002276D01*
X001404Y002273D01*
X001453Y002266D01*
X001502Y002255D01*
X001550Y002240D01*
X001596Y002222D01*
X001641Y002200D01*
X001684Y002174D01*
X001725Y002145D01*
X001764Y002113D01*
X001800Y002078D01*
X001832Y002040D01*
X001862Y002000D01*
X001889Y001957D01*
X001912Y001913D01*
X001931Y001867D01*
X001947Y001819D01*
X001959Y001770D01*
X001967Y001721D01*
X001971Y001671D01*
X001971Y001621D01*
X001967Y001571D01*
X001959Y001522D01*
X001947Y001473D01*
X001931Y001425D01*
X001912Y001379D01*
X001889Y001335D01*
X001862Y001292D01*
X001832Y001252D01*
X001800Y001214D01*
X001764Y001179D01*
X001725Y001147D01*
X001684Y001118D01*
X001641Y001092D01*
X001596Y001070D01*
X001550Y001052D01*
X001502Y001037D01*
X001453Y001026D01*
X001404Y001019D01*
X001354Y001016D01*
X001303Y001017D01*
X001254Y001022D01*
X001204Y001031D01*
X001156Y001044D01*
X001109Y001060D01*
X001063Y001081D01*
X001019Y001105D01*
X000977Y001132D01*
X000937Y001162D01*
X000900Y001196D01*
X000866Y001233D01*
X000834Y001272D01*
X000806Y001313D01*
X000781Y001357D01*
X000760Y001402D01*
X000743Y001449D01*
X000729Y001497D01*
X000719Y001546D01*
X000713Y001596D01*
X000711Y001646D01*
X000711Y014244D02*
X000713Y014294D01*
X000719Y014344D01*
X000729Y014393D01*
X000743Y014441D01*
X000760Y014488D01*
X000781Y014533D01*
X000806Y014577D01*
X000834Y014618D01*
X000866Y014657D01*
X000900Y014694D01*
X000937Y014728D01*
X000977Y014758D01*
X001019Y014785D01*
X001063Y014809D01*
X001109Y014830D01*
X001156Y014846D01*
X001204Y014859D01*
X001254Y014868D01*
X001303Y014873D01*
X001354Y014874D01*
X001404Y014871D01*
X001453Y014864D01*
X001502Y014853D01*
X001550Y014838D01*
X001596Y014820D01*
X001641Y014798D01*
X001684Y014772D01*
X001725Y014743D01*
X001764Y014711D01*
X001800Y014676D01*
X001832Y014638D01*
X001862Y014598D01*
X001889Y014555D01*
X001912Y014511D01*
X001931Y014465D01*
X001947Y014417D01*
X001959Y014368D01*
X001967Y014319D01*
X001971Y014269D01*
X001971Y014219D01*
X001967Y014169D01*
X001959Y014120D01*
X001947Y014071D01*
X001931Y014023D01*
X001912Y013977D01*
X001889Y013933D01*
X001862Y013890D01*
X001832Y013850D01*
X001800Y013812D01*
X001764Y013777D01*
X001725Y013745D01*
X001684Y013716D01*
X001641Y013690D01*
X001596Y013668D01*
X001550Y013650D01*
X001502Y013635D01*
X001453Y013624D01*
X001404Y013617D01*
X001354Y013614D01*
X001303Y013615D01*
X001254Y013620D01*
X001204Y013629D01*
X001156Y013642D01*
X001109Y013658D01*
X001063Y013679D01*
X001019Y013703D01*
X000977Y013730D01*
X000937Y013760D01*
X000900Y013794D01*
X000866Y013831D01*
X000834Y013870D01*
X000806Y013911D01*
X000781Y013955D01*
X000760Y014000D01*
X000743Y014047D01*
X000729Y014095D01*
X000719Y014144D01*
X000713Y014194D01*
X000711Y014244D01*
X025908Y014244D02*
X025910Y014294D01*
X025916Y014344D01*
X025926Y014393D01*
X025940Y014441D01*
X025957Y014488D01*
X025978Y014533D01*
X026003Y014577D01*
X026031Y014618D01*
X026063Y014657D01*
X026097Y014694D01*
X026134Y014728D01*
X026174Y014758D01*
X026216Y014785D01*
X026260Y014809D01*
X026306Y014830D01*
X026353Y014846D01*
X026401Y014859D01*
X026451Y014868D01*
X026500Y014873D01*
X026551Y014874D01*
X026601Y014871D01*
X026650Y014864D01*
X026699Y014853D01*
X026747Y014838D01*
X026793Y014820D01*
X026838Y014798D01*
X026881Y014772D01*
X026922Y014743D01*
X026961Y014711D01*
X026997Y014676D01*
X027029Y014638D01*
X027059Y014598D01*
X027086Y014555D01*
X027109Y014511D01*
X027128Y014465D01*
X027144Y014417D01*
X027156Y014368D01*
X027164Y014319D01*
X027168Y014269D01*
X027168Y014219D01*
X027164Y014169D01*
X027156Y014120D01*
X027144Y014071D01*
X027128Y014023D01*
X027109Y013977D01*
X027086Y013933D01*
X027059Y013890D01*
X027029Y013850D01*
X026997Y013812D01*
X026961Y013777D01*
X026922Y013745D01*
X026881Y013716D01*
X026838Y013690D01*
X026793Y013668D01*
X026747Y013650D01*
X026699Y013635D01*
X026650Y013624D01*
X026601Y013617D01*
X026551Y013614D01*
X026500Y013615D01*
X026451Y013620D01*
X026401Y013629D01*
X026353Y013642D01*
X026306Y013658D01*
X026260Y013679D01*
X026216Y013703D01*
X026174Y013730D01*
X026134Y013760D01*
X026097Y013794D01*
X026063Y013831D01*
X026031Y013870D01*
X026003Y013911D01*
X025978Y013955D01*
X025957Y014000D01*
X025940Y014047D01*
X025926Y014095D01*
X025916Y014144D01*
X025910Y014194D01*
X025908Y014244D01*
X025908Y001646D02*
X025910Y001696D01*
X025916Y001746D01*
X025926Y001795D01*
X025940Y001843D01*
X025957Y001890D01*
X025978Y001935D01*
X026003Y001979D01*
X026031Y002020D01*
X026063Y002059D01*
X026097Y002096D01*
X026134Y002130D01*
X026174Y002160D01*
X026216Y002187D01*
X026260Y002211D01*
X026306Y002232D01*
X026353Y002248D01*
X026401Y002261D01*
X026451Y002270D01*
X026500Y002275D01*
X026551Y002276D01*
X026601Y002273D01*
X026650Y002266D01*
X026699Y002255D01*
X026747Y002240D01*
X026793Y002222D01*
X026838Y002200D01*
X026881Y002174D01*
X026922Y002145D01*
X026961Y002113D01*
X026997Y002078D01*
X027029Y002040D01*
X027059Y002000D01*
X027086Y001957D01*
X027109Y001913D01*
X027128Y001867D01*
X027144Y001819D01*
X027156Y001770D01*
X027164Y001721D01*
X027168Y001671D01*
X027168Y001621D01*
X027164Y001571D01*
X027156Y001522D01*
X027144Y001473D01*
X027128Y001425D01*
X027109Y001379D01*
X027086Y001335D01*
X027059Y001292D01*
X027029Y001252D01*
X026997Y001214D01*
X026961Y001179D01*
X026922Y001147D01*
X026881Y001118D01*
X026838Y001092D01*
X026793Y001070D01*
X026747Y001052D01*
X026699Y001037D01*
X026650Y001026D01*
X026601Y001019D01*
X026551Y001016D01*
X026500Y001017D01*
X026451Y001022D01*
X026401Y001031D01*
X026353Y001044D01*
X026306Y001060D01*
X026260Y001081D01*
X026216Y001105D01*
X026174Y001132D01*
X026134Y001162D01*
X026097Y001196D01*
X026063Y001233D01*
X026031Y001272D01*
X026003Y001313D01*
X025978Y001357D01*
X025957Y001402D01*
X025940Y001449D01*
X025926Y001497D01*
X025916Y001546D01*
X025910Y001596D01*
X025908Y001646D01*
M02*
